<svg width="26" height="32" viewBox="0 0 26 32" fill="none" xmlns="http://www.w3.org/2000/svg">
<path fill-rule="evenodd" clip-rule="evenodd" d="M18.8736 0.346069C19.0706 2.14907 18.3485 3.96099 17.2754 5.26263H17.2755C16.2024 6.56506 14.4413 7.57669 12.7173 7.443C12.4824 5.67575 13.3531 3.8319 14.3473 2.67982C15.4567 1.37896 17.3269 0.40836 18.8736 0.346069ZM25.2592 22.9331C25.0729 22.8575 21.1841 21.279 21.1418 16.7052V16.7053C21.1076 12.8894 24.1864 11.0144 24.4497 10.8541C24.4552 10.8507 24.4595 10.8481 24.4624 10.8463C22.6567 8.19734 19.8444 7.83369 18.8426 7.79187C17.3789 7.64324 15.9587 8.2046 14.799 8.66301C14.0628 8.95405 13.4314 9.2036 12.9606 9.2036C12.4353 9.2036 11.7861 8.94559 11.0578 8.6561C10.1041 8.27705 9.01469 7.84403 7.88945 7.86552C5.28043 7.90352 2.87654 9.38508 1.53147 11.7249C-1.17616 16.4365 0.840322 23.4165 3.47905 27.2394C4.77027 29.1084 6.30934 31.2135 8.33041 31.1368C9.23487 31.1012 9.87782 30.8268 10.5426 30.543C11.3093 30.2158 12.1051 29.8762 13.3645 29.8762C14.5677 29.8762 15.3286 30.206 16.0602 30.5232C16.7588 30.8261 17.4307 31.1174 18.4356 31.0988C20.5295 31.0601 21.8587 29.1912 23.1394 27.3153C24.5717 25.2174 25.1901 23.1842 25.2604 22.9531C25.2628 22.9452 25.2646 22.9394 25.2657 22.9358C25.2649 22.9354 25.2627 22.9345 25.2592 22.9331Z" fill="black"/>
</svg>
