<svg width="359" height="359" viewBox="0 0 359 359" fill="none" xmlns="http://www.w3.org/2000/svg">
<path d="M243.868 273.99C247.809 279.794 246.325 287.756 240.157 291.098C221.917 300.981 201.472 306.278 180.599 306.435C155.477 306.624 130.864 299.359 109.871 285.56C88.8784 271.76 72.4491 252.045 62.661 228.908C52.8729 205.771 50.1655 180.251 54.8812 155.576C59.5968 130.9 71.5238 108.177 89.1538 90.2796C106.784 72.3825 129.325 60.1151 153.927 55.0289C178.529 49.9426 204.087 52.2659 227.368 61.7049C246.713 69.5478 263.764 82.0106 277.074 97.9233C281.575 103.304 280.019 111.253 274.215 115.194C268.412 119.135 260.568 117.561 255.934 112.294C245.542 100.484 232.509 91.2016 217.823 85.2476C199.198 77.6964 178.752 75.8378 159.07 79.9068C139.389 83.9758 121.356 93.7897 107.252 108.107C93.1477 122.425 83.6061 140.604 79.8336 160.344C76.0611 180.085 78.227 200.501 86.0575 219.01C93.888 237.52 107.031 253.292 123.826 264.331C140.62 275.371 160.31 281.183 180.408 281.032C196.254 280.913 211.792 277.09 225.806 269.944C232.055 266.757 239.927 268.187 243.868 273.99Z" fill="#F1F4F8"/>
<path d="M94.0404 103.651C88.7873 99.0012 88.2583 90.9193 93.409 86.1567C108.641 72.0726 127.143 61.8876 147.33 56.5773C171.626 50.1864 197.271 51.1435 221.023 59.3276C244.775 67.5117 265.566 82.5552 280.768 102.556C295.97 122.556 304.9 146.616 306.428 171.691C307.956 196.767 302.015 221.733 289.354 243.432C276.693 265.13 257.883 282.588 235.301 293.596C212.719 304.604 187.379 308.668 162.487 305.275C141.805 302.455 122.203 294.593 105.373 282.463C99.6822 278.361 99.2259 270.275 103.875 265.021C108.525 259.768 116.515 259.355 122.306 263.313C135.294 272.19 150.217 277.963 165.919 280.104C185.832 282.818 206.104 279.567 224.169 270.76C242.235 261.954 257.283 247.988 267.412 230.629C277.54 213.27 282.294 193.297 281.071 173.237C279.849 153.176 272.705 133.929 260.543 117.928C248.382 101.928 231.748 89.8931 212.747 83.3458C193.746 76.7985 173.229 76.0328 153.793 81.1456C138.467 85.1769 124.356 92.72 112.542 103.108C107.274 107.74 99.2934 108.3 94.0404 103.651Z" fill="#F25D29"/>
<path d="M157.81 167.369L146.035 194.946H139.75L151.613 168.077H136.474V162.765H157.81V167.369ZM183.211 168.033H168.869V175.602C169.489 174.835 170.374 174.215 171.525 173.743C172.676 173.241 173.901 172.99 175.199 172.99C177.56 172.99 179.493 173.507 180.998 174.54C182.503 175.573 183.595 176.9 184.273 178.524C184.952 180.117 185.291 181.829 185.291 183.658C185.291 187.052 184.317 189.781 182.37 191.847C180.452 193.913 177.707 194.946 174.137 194.946C170.773 194.946 168.087 194.105 166.08 192.423C164.074 190.741 162.938 188.542 162.672 185.827H168.692C168.958 187.008 169.548 187.952 170.463 188.66C171.407 189.368 172.602 189.722 174.048 189.722C175.789 189.722 177.102 189.177 177.988 188.085C178.873 186.993 179.316 185.547 179.316 183.747C179.316 181.917 178.858 180.53 177.943 179.586C177.058 178.612 175.745 178.125 174.004 178.125C172.764 178.125 171.732 178.435 170.905 179.055C170.079 179.674 169.489 180.501 169.135 181.534H163.203V162.588H183.211V168.033ZM189.3 170.6C189.3 168.357 189.949 166.602 191.247 165.333C192.575 164.064 194.272 163.429 196.338 163.429C198.403 163.429 200.085 164.064 201.384 165.333C202.712 166.602 203.376 168.357 203.376 170.6C203.376 172.872 202.712 174.643 201.384 175.912C200.085 177.181 198.403 177.815 196.338 177.815C194.272 177.815 192.575 177.181 191.247 175.912C189.949 174.643 189.3 172.872 189.3 170.6ZM217.718 163.96L200.322 194.946H194.302L211.653 163.96H217.718ZM196.293 167.148C194.67 167.148 193.859 168.298 193.859 170.6C193.859 172.931 194.67 174.097 196.293 174.097C197.09 174.097 197.71 173.817 198.153 173.256C198.595 172.666 198.817 171.781 198.817 170.6C198.817 168.298 197.976 167.148 196.293 167.148ZM208.732 188.262C208.732 185.989 209.381 184.234 210.679 182.994C212.007 181.725 213.704 181.091 215.77 181.091C217.836 181.091 219.503 181.725 220.772 182.994C222.07 184.234 222.719 185.989 222.719 188.262C222.719 190.534 222.07 192.305 220.772 193.573C219.503 194.842 217.836 195.477 215.77 195.477C213.675 195.477 211.978 194.842 210.679 193.573C209.381 192.305 208.732 190.534 208.732 188.262ZM215.726 184.809C214.044 184.809 213.203 185.96 213.203 188.262C213.203 190.593 214.044 191.759 215.726 191.759C217.378 191.759 218.204 190.593 218.204 188.262C218.204 185.96 217.378 184.809 215.726 184.809Z" fill="#0A0615"/>
</svg>
