<svg width="346" height="294" viewBox="0 0 346 294" fill="none" xmlns="http://www.w3.org/2000/svg">
<g clip-path="url(#clip0_2_364)">
<g filter="url(#filter0_d_2_364)">
<rect x="0.414734" y="0.585449" width="344.902" height="292.878" rx="7.70732" fill="white"/>
</g>
<path d="M56.293 239.034H322.195" stroke="#E5E9EF" stroke-width="0.963415" stroke-linecap="square"/>
<path d="M56.293 200.737H322.195" stroke="#E5E9EF" stroke-width="0.963415" stroke-linecap="square"/>
<path d="M56.293 162.44H322.195" stroke="#E5E9EF" stroke-width="0.963415" stroke-linecap="square"/>
<path d="M56.293 124.142H322.195" stroke="#E5E9EF" stroke-width="0.963415" stroke-linecap="square"/>
<path d="M56.293 85.8449H322.195" stroke="#E5E9EF" stroke-width="0.963415" stroke-linecap="square"/>
<path d="M68.8171 152.805C69.7806 152.805 107.835 160.512 112.171 160.512C116.506 160.512 143.963 160.994 150.707 162.921C172.041 169.016 183.619 176.368 189.244 177.372C193.668 178.161 220.578 166.953 227.781 166.774C228.343 166.76 266.317 181.707 266.317 181.707C267.208 182.002 304.231 175.412 304.854 175.445" stroke="#F25D29" stroke-width="1.92683" stroke-linecap="round" stroke-linejoin="round"/>
<rect x="65.9269" y="145.098" width="14.4512" height="14.4512" rx="6.7439" fill="#F25D29"/>
<rect x="66.9591" y="146.13" width="12.3868" height="12.3868" rx="5.78049" stroke="white" stroke-width="1.92683"/>
<rect x="104.464" y="153.769" width="14.4512" height="14.4512" rx="6.7439" fill="#F25D29"/>
<rect x="105.496" y="154.801" width="12.3868" height="12.3868" rx="5.78049" stroke="white" stroke-width="1.92683"/>
<rect x="143" y="155.695" width="14.4512" height="14.4512" rx="6.7439" fill="#F25D29"/>
<rect x="144.032" y="156.728" width="12.3868" height="12.3868" rx="5.78049" stroke="white" stroke-width="1.92683"/>
<rect x="181.537" y="170.146" width="14.4512" height="14.4512" rx="6.7439" fill="#F25D29"/>
<rect x="182.569" y="171.179" width="12.3868" height="12.3868" rx="5.78049" stroke="white" stroke-width="1.92683"/>
<rect x="220.073" y="159.549" width="14.4512" height="14.4512" rx="6.7439" fill="#F25D29"/>
<rect x="221.105" y="160.581" width="12.3868" height="12.3868" rx="5.78049" stroke="white" stroke-width="1.92683"/>
<rect x="258.61" y="174" width="14.4512" height="14.4512" rx="6.7439" fill="#F25D29"/>
<rect x="259.642" y="175.032" width="12.3868" height="12.3868" rx="5.78049" stroke="white" stroke-width="1.92683"/>
<rect x="297.146" y="168.22" width="14.4512" height="14.4512" rx="6.7439" fill="#F25D29"/>
<rect x="298.178" y="169.252" width="12.3868" height="12.3868" rx="5.78049" stroke="white" stroke-width="1.92683"/>
<g clip-path="url(#clip1_2_364)">
<path d="M76.5379 265.365C76.5379 266.212 76.2306 266.873 75.6159 267.347C75.0012 267.821 74.167 268.058 73.1133 268.058C71.9717 268.058 71.0936 267.911 70.4789 267.617V266.537C70.8741 266.704 71.3043 266.836 71.7697 266.932C72.2351 267.029 72.6962 267.077 73.1528 267.077C73.8992 267.077 74.4612 266.937 74.8387 266.656C75.2163 266.37 75.4051 265.975 75.4051 265.47C75.4051 265.137 75.3371 264.864 75.201 264.654C75.0693 264.438 74.8453 264.241 74.5292 264.061C74.2175 263.881 73.7411 263.677 73.1001 263.448C72.2044 263.128 71.5634 262.748 71.177 262.309C70.795 261.87 70.6041 261.297 70.6041 260.59C70.6041 259.848 70.8829 259.258 71.4405 258.819C71.9981 258.379 72.7357 258.16 73.6533 258.16C74.6104 258.16 75.4907 258.336 76.2942 258.687L75.9452 259.662C75.1505 259.328 74.3777 259.161 73.627 259.161C73.0342 259.161 72.571 259.288 72.2373 259.543C71.9037 259.798 71.7368 260.151 71.7368 260.603C71.7368 260.937 71.7983 261.211 71.9212 261.427C72.0442 261.637 72.2505 261.833 72.5403 262.013C72.8345 262.188 73.2823 262.384 73.8838 262.599C74.8936 262.959 75.5873 263.345 75.9649 263.758C76.3469 264.171 76.5379 264.706 76.5379 265.365Z" fill="#404B52"/>
<path d="M111.012 267.927L107.745 259.392H107.693C107.754 260.068 107.785 260.871 107.785 261.802V267.927H106.751V258.298H108.437L111.486 266.241H111.539L114.614 258.298H116.287V267.927H115.168V261.723C115.168 261.012 115.198 260.239 115.26 259.405H115.207L111.914 267.927H111.012Z" fill="#404B52"/>
<path d="M151.141 267.927H150.022V259.293H146.972V258.298H154.191V259.293H151.141V267.927Z" fill="#404B52"/>
<path d="M192.228 267.927H191.121L189.178 261.479C189.086 261.194 188.983 260.834 188.869 260.399C188.755 259.964 188.695 259.703 188.691 259.615C188.594 260.195 188.441 260.829 188.23 261.519L186.346 267.927H185.24L182.678 258.298H183.864L185.385 264.245C185.596 265.079 185.749 265.835 185.846 266.511C185.964 265.707 186.14 264.921 186.373 264.153L188.098 258.298H189.284L191.095 264.206C191.306 264.886 191.483 265.655 191.628 266.511C191.712 265.887 191.87 265.128 192.102 264.232L193.617 258.298H194.803L192.228 267.927Z" fill="#404B52"/>
<path d="M228.215 267.927H227.095V259.293H224.046V258.298H231.264V259.293H228.215V267.927Z" fill="#404B52"/>
<path d="M264.907 267.927H263.787V258.298H269.155V259.293H264.907V262.816H268.898V263.811H264.907V267.927Z" fill="#404B52"/>
<path d="M307.757 265.365C307.757 266.212 307.45 266.873 306.835 267.347C306.221 267.821 305.386 268.058 304.333 268.058C303.191 268.058 302.313 267.911 301.698 267.617V266.537C302.094 266.704 302.524 266.836 302.989 266.932C303.455 267.029 303.916 267.077 304.372 267.077C305.119 267.077 305.681 266.937 306.058 266.656C306.436 266.37 306.625 265.975 306.625 265.47C306.625 265.137 306.557 264.864 306.42 264.654C306.289 264.438 306.065 264.241 305.749 264.061C305.437 263.881 304.961 263.677 304.32 263.448C303.424 263.128 302.783 262.748 302.397 262.309C302.015 261.87 301.824 261.297 301.824 260.59C301.824 259.848 302.102 259.258 302.66 258.819C303.218 258.379 303.955 258.16 304.873 258.16C305.83 258.16 306.71 258.336 307.514 258.687L307.165 259.662C306.37 259.328 305.597 259.161 304.846 259.161C304.254 259.161 303.791 259.288 303.457 259.543C303.123 259.798 302.956 260.151 302.956 260.603C302.956 260.937 303.018 261.211 303.141 261.427C303.264 261.637 303.47 261.833 303.76 262.013C304.054 262.188 304.502 262.384 305.103 262.599C306.113 262.959 306.807 263.345 307.184 263.758C307.566 264.171 307.757 264.706 307.757 265.365Z" fill="#404B52"/>
</g>
<g clip-path="url(#clip2_2_364)">
<path d="M27.205 232.216C28.2192 232.216 29.0161 232.469 29.5957 232.974C30.1796 233.474 30.4716 234.162 30.4716 235.035C30.4716 236.032 30.1533 236.813 29.5166 237.38C28.8844 237.946 28.0107 238.229 26.8955 238.229C25.811 238.229 24.9834 238.056 24.4126 237.709V236.655C24.7199 236.853 25.1019 237.009 25.5585 237.123C26.0152 237.233 26.4652 237.288 26.9086 237.288C27.6814 237.288 28.2807 237.105 28.7066 236.741C29.1368 236.377 29.352 235.85 29.352 235.16C29.352 233.817 28.5288 233.145 26.8823 233.145C26.4652 233.145 25.9076 233.209 25.2095 233.336L24.6431 232.974L25.0053 228.469H29.7932V229.477H25.9405L25.6968 232.368C26.2018 232.267 26.7045 232.216 27.205 232.216ZM35.9642 238.098H34.8973V231.235C34.8973 230.664 34.9148 230.124 34.9499 229.615C34.8577 229.707 34.7546 229.804 34.6404 229.905C34.5263 230.006 34.0038 230.434 33.073 231.189L32.4934 230.438L35.0421 228.469H35.9642V238.098Z" fill="#404B52"/>
<path d="M27.205 193.679C28.2192 193.679 29.0161 193.932 29.5957 194.437C30.1796 194.937 30.4716 195.624 30.4716 196.498C30.4716 197.495 30.1533 198.276 29.5166 198.843C28.8844 199.409 28.0107 199.692 26.8955 199.692C25.811 199.692 24.9834 199.519 24.4126 199.172V198.118C24.7199 198.316 25.1019 198.472 25.5585 198.586C26.0152 198.696 26.4652 198.75 26.9086 198.75C27.6814 198.75 28.2807 198.568 28.7066 198.204C29.1368 197.839 29.352 197.313 29.352 196.623C29.352 195.28 28.5288 194.608 26.8823 194.608C26.4652 194.608 25.9076 194.672 25.2095 194.799L24.6431 194.437L25.0053 189.932H29.7932V190.94H25.9405L25.6968 193.831C26.2018 193.73 26.7045 193.679 27.205 193.679ZM38.2429 199.561H31.9139V198.619L34.4494 196.07C35.2222 195.289 35.7315 194.731 35.9773 194.397C36.2232 194.064 36.4076 193.739 36.5305 193.423C36.6535 193.106 36.715 192.766 36.715 192.402C36.715 191.888 36.5591 191.482 36.2474 191.183C35.9356 190.88 35.5032 190.729 34.9499 190.729C34.5504 190.729 34.1706 190.795 33.8106 190.927C33.455 191.058 33.0576 191.298 32.6186 191.644L32.039 190.9C32.9259 190.163 33.8918 189.794 34.9368 189.794C35.8412 189.794 36.5503 190.026 37.064 190.492C37.5777 190.953 37.8345 191.574 37.8345 192.356C37.8345 192.966 37.6633 193.57 37.3208 194.167C36.9784 194.764 36.3374 195.519 35.3978 196.432L33.2903 198.494V198.546H38.2429V199.561Z" fill="#404B52"/>
<path d="M27.205 155.143C28.2192 155.143 29.0161 155.396 29.5957 155.901C30.1796 156.401 30.4716 157.088 30.4716 157.962C30.4716 158.959 30.1533 159.74 29.5166 160.307C28.8844 160.873 28.0107 161.156 26.8955 161.156C25.811 161.156 24.9834 160.983 24.4126 160.636V159.582C24.7199 159.78 25.1019 159.936 25.5585 160.05C26.0152 160.159 26.4652 160.214 26.9086 160.214C27.6814 160.214 28.2807 160.032 28.7066 159.668C29.1368 159.303 29.352 158.776 29.352 158.087C29.352 156.744 28.5288 156.072 26.8823 156.072C26.4652 156.072 25.9076 156.136 25.2095 156.263L24.6431 155.901L25.0053 151.396H29.7932V152.404H25.9405L25.6968 155.295C26.2018 155.194 26.7045 155.143 27.205 155.143ZM37.8806 153.661C37.8806 154.276 37.7072 154.779 37.3604 155.17C37.0179 155.56 36.5305 155.822 35.8983 155.953V156.006C36.671 156.103 37.244 156.348 37.6172 156.744C37.9904 157.139 38.177 157.657 38.177 158.298C38.177 159.216 37.8587 159.922 37.2221 160.419C36.5854 160.91 35.681 161.156 34.5087 161.156C33.9994 161.156 33.5318 161.117 33.1059 161.038C32.6844 160.963 32.2739 160.829 31.8744 160.636V159.595C32.2915 159.802 32.7349 159.96 33.2047 160.069C33.6789 160.175 34.1267 160.228 34.5482 160.228C36.2122 160.228 37.0442 159.576 37.0442 158.272C37.0442 157.104 36.1266 156.52 34.2914 156.52H33.343V155.578H34.3045C35.0553 155.578 35.6502 155.413 36.0893 155.084C36.5284 154.75 36.7479 154.289 36.7479 153.701C36.7479 153.231 36.5854 152.862 36.2605 152.595C35.94 152.327 35.5032 152.193 34.9499 152.193C34.5285 152.193 34.1311 152.25 33.7579 152.364C33.3847 152.478 32.9588 152.689 32.4803 152.996L31.927 152.259C32.3222 151.947 32.7766 151.703 33.2903 151.528C33.8084 151.348 34.3528 151.258 34.9236 151.258C35.8588 151.258 36.5854 151.473 37.1035 151.903C37.6216 152.329 37.8806 152.915 37.8806 153.661Z" fill="#404B52"/>
<path d="M27.205 116.607C28.2192 116.607 29.0161 116.86 29.5957 117.364C30.1796 117.865 30.4716 118.552 30.4716 119.426C30.4716 120.423 30.1533 121.204 29.5166 121.77C28.8844 122.337 28.0107 122.62 26.8955 122.62C25.811 122.62 24.9834 122.447 24.4126 122.1V121.046C24.7199 121.244 25.1019 121.399 25.5585 121.514C26.0152 121.623 26.4652 121.678 26.9086 121.678C27.6814 121.678 28.2807 121.496 28.7066 121.132C29.1368 120.767 29.352 120.24 29.352 119.551C29.352 118.207 28.5288 117.536 26.8823 117.536C26.4652 117.536 25.9076 117.599 25.2095 117.727L24.6431 117.364L25.0053 112.86H29.7932V113.867H25.9405L25.6968 116.759C26.2018 116.658 26.7045 116.607 27.205 116.607ZM38.6973 120.275H37.2682V122.488H36.221V120.275H31.5385V119.32L36.1091 112.807H37.2682V119.281H38.6973V120.275ZM36.221 119.281V116.08C36.221 115.452 36.243 114.743 36.2869 113.953H36.2342C36.0234 114.375 35.8259 114.724 35.6415 115L32.6317 119.281H36.221Z" fill="#404B52"/>
<path d="M27.205 78.07C28.2192 78.07 29.0161 78.3225 29.5957 78.8274C30.1796 79.3279 30.4716 80.015 30.4716 80.8888C30.4716 81.8854 30.1533 82.6669 29.5166 83.2333C28.8844 83.7997 28.0107 84.0829 26.8955 84.0829C25.811 84.0829 24.9834 83.9095 24.4126 83.5626V82.5089C24.7199 82.7064 25.1019 82.8623 25.5585 82.9765C26.0152 83.0862 26.4652 83.1411 26.9086 83.1411C27.6814 83.1411 28.2807 82.9589 28.7066 82.5945C29.1368 82.2301 29.352 81.7032 29.352 81.0139C29.352 79.6704 28.5288 78.9986 26.8823 78.9986C26.4652 78.9986 25.9076 79.0623 25.2095 79.1896L24.6431 78.8274L25.0053 74.3227H29.7932V75.3303H25.9405L25.6968 78.2215C26.2018 78.1205 26.7045 78.07 27.205 78.07ZM34.9236 78.07C35.9378 78.07 36.7347 78.3225 37.3143 78.8274C37.8982 79.3279 38.1902 80.015 38.1902 80.8888C38.1902 81.8854 37.8719 82.6669 37.2352 83.2333C36.603 83.7997 35.7293 84.0829 34.6141 84.0829C33.5296 84.0829 32.702 83.9095 32.1312 83.5626V82.5089C32.4385 82.7064 32.8205 82.8623 33.2771 82.9765C33.7338 83.0862 34.1838 83.1411 34.6272 83.1411C35.4 83.1411 35.9993 82.9589 36.4252 82.5945C36.8555 82.2301 37.0706 81.7032 37.0706 81.0139C37.0706 79.6704 36.2474 78.9986 34.6009 78.9986C34.1838 78.9986 33.6262 79.0623 32.9281 79.1896L32.3617 78.8274L32.7239 74.3227H37.5118V75.3303H33.6591L33.4154 78.2215C33.9204 78.1205 34.4231 78.07 34.9236 78.07Z" fill="#404B52"/>
</g>
<path d="M281.031 32.1732V42.2168H279.383V37.8236H274.658V42.2168H273.01V32.1732H274.658V36.4797H279.383V32.1732H281.031ZM284.038 33.1992C283.739 33.1992 283.489 33.0981 283.286 32.8958C283.084 32.6934 282.983 32.443 282.983 32.1443C282.983 31.8456 283.084 31.5952 283.286 31.3928C283.489 31.1905 283.739 31.0894 284.038 31.0894C284.327 31.0894 284.572 31.1905 284.775 31.3928C284.977 31.5952 285.078 31.8456 285.078 32.1443C285.078 32.443 284.977 32.6934 284.775 32.8958C284.572 33.0981 284.327 33.1992 284.038 33.1992ZM284.847 34.2542V42.2168H283.2V34.2542H284.847ZM289.9 42.3469C289.274 42.3469 288.71 42.2361 288.209 42.0145C287.718 41.7833 287.328 41.475 287.039 41.0896C286.75 40.6946 286.596 40.2562 286.576 39.7745H288.282C288.31 40.1117 288.469 40.3959 288.758 40.6272C289.057 40.8487 289.428 40.9595 289.871 40.9595C290.334 40.9595 290.69 40.8728 290.941 40.6994C291.201 40.5164 291.331 40.2852 291.331 40.0058C291.331 39.7071 291.186 39.4855 290.897 39.341C290.618 39.1965 290.17 39.0375 289.553 38.8641C288.956 38.7003 288.469 38.5414 288.094 38.3872C287.718 38.2331 287.39 37.997 287.111 37.6791C286.841 37.3612 286.706 36.9421 286.706 36.4219C286.706 35.998 286.832 35.6126 287.082 35.2658C287.333 34.9093 287.689 34.6299 288.152 34.4276C288.624 34.2253 289.163 34.1241 289.77 34.1241C290.676 34.1241 291.403 34.3553 291.952 34.8178C292.511 35.2706 292.81 35.892 292.848 36.682H291.201C291.172 36.3255 291.027 36.0413 290.767 35.8294C290.507 35.6174 290.155 35.5114 289.712 35.5114C289.279 35.5114 288.946 35.5933 288.715 35.7571C288.484 35.9209 288.368 36.1377 288.368 36.4074C288.368 36.6194 288.445 36.7976 288.6 36.9421C288.754 37.0866 288.942 37.2022 289.163 37.2889C289.385 37.366 289.712 37.4672 290.146 37.5924C290.724 37.7466 291.196 37.9055 291.562 38.0693C291.938 38.2234 292.26 38.4547 292.53 38.763C292.8 39.0712 292.94 39.4807 292.949 39.9913C292.949 40.4441 292.824 40.8487 292.574 41.2052C292.323 41.5617 291.967 41.8411 291.504 42.0434C291.051 42.2457 290.517 42.3469 289.9 42.3469ZM296.651 35.5981V40.0058C296.651 40.3044 296.719 40.5212 296.854 40.6561C296.998 40.7813 297.239 40.8439 297.576 40.8439H298.588V42.2168H297.287C296.545 42.2168 295.977 42.0434 295.582 41.6966C295.187 41.3497 294.99 40.7861 294.99 40.0058V35.5981H294.05V34.2542H294.99V32.2744H296.651V34.2542H298.588V35.5981H296.651ZM303.56 42.3469C302.809 42.3469 302.129 42.1783 301.523 41.8411C300.916 41.4942 300.439 41.0125 300.092 40.3959C299.745 39.7697 299.572 39.0472 299.572 38.2283C299.572 37.419 299.75 36.7012 300.106 36.075C300.463 35.4488 300.949 34.9671 301.566 34.6299C302.182 34.2927 302.871 34.1241 303.632 34.1241C304.394 34.1241 305.082 34.2927 305.699 34.6299C306.316 34.9671 306.802 35.4488 307.159 36.075C307.515 36.7012 307.693 37.419 307.693 38.2283C307.693 39.0375 307.51 39.7553 307.144 40.3815C306.778 41.0077 306.277 41.4942 305.641 41.8411C305.015 42.1783 304.321 42.3469 303.56 42.3469ZM303.56 40.9162C303.984 40.9162 304.379 40.815 304.745 40.6127C305.121 40.4104 305.424 40.1069 305.656 39.7023C305.887 39.2977 306.002 38.8063 306.002 38.2283C306.002 37.6502 305.892 37.1637 305.67 36.7687C305.448 36.3641 305.155 36.0606 304.789 35.8583C304.422 35.6559 304.027 35.5548 303.604 35.5548C303.18 35.5548 302.785 35.6559 302.419 35.8583C302.062 36.0606 301.778 36.3641 301.566 36.7687C301.354 37.1637 301.248 37.6502 301.248 38.2283C301.248 39.0857 301.465 39.7505 301.898 40.2225C302.341 40.685 302.895 40.9162 303.56 40.9162ZM310.969 35.4103C311.21 35.0056 311.528 34.6925 311.923 34.4709C312.328 34.2397 312.805 34.1241 313.354 34.1241V35.8294H312.935C312.289 35.8294 311.798 35.9931 311.461 36.3207C311.133 36.6483 310.969 37.2167 310.969 38.0259V42.2168H309.322V34.2542H310.969V35.4103ZM322.036 34.2542L317.151 45.9597H315.446L317.065 42.0867L313.929 34.2542H315.764L318.004 40.3237L320.331 34.2542H322.036Z" fill="#9299A3"/>
<path d="M38.6431 33.9939L35.4676 44.707H33.4792L31.2286 36.5989L28.8393 44.707L26.8663 44.7224L23.8296 33.9939H25.6948L27.9145 42.7185L30.3192 33.9939H32.2922L34.5273 42.6723L36.7625 33.9939H38.6431ZM47.8768 40.2522C47.8768 40.5708 47.8562 40.8585 47.8151 41.1154H41.3256C41.3769 41.7937 41.6287 42.3383 42.0809 42.7494C42.533 43.1604 43.088 43.366 43.7457 43.366C44.6911 43.366 45.3591 42.9703 45.7496 42.179H47.6456C47.3887 42.96 46.9211 43.6023 46.2428 44.1059C45.5749 44.5991 44.7425 44.8458 43.7457 44.8458C42.9338 44.8458 42.2042 44.6659 41.5568 44.3063C40.9196 43.9363 40.4161 43.4225 40.0461 42.7648C39.6865 42.0968 39.5066 41.3261 39.5066 40.4526C39.5066 39.5791 39.6813 38.8135 40.0307 38.1558C40.3904 37.4878 40.8888 36.974 41.526 36.6143C42.1734 36.2547 42.9133 36.0748 43.7457 36.0748C44.5472 36.0748 45.2614 36.2495 45.8883 36.5989C46.5152 36.9483 47.0033 37.4416 47.3527 38.0787C47.7021 38.7056 47.8768 39.4301 47.8768 40.2522ZM46.0424 39.6973C46.0322 39.0499 45.8009 38.5309 45.3488 38.1404C44.8966 37.7499 44.3366 37.5546 43.6686 37.5546C43.0623 37.5546 42.5433 37.7499 42.1117 38.1404C41.6801 38.5206 41.4232 39.0396 41.341 39.6973H46.0424ZM50.5002 35.0883C50.1816 35.0883 49.9144 34.9804 49.6986 34.7646C49.4828 34.5488 49.3749 34.2816 49.3749 33.963C49.3749 33.6445 49.4828 33.3773 49.6986 33.1615C49.9144 32.9457 50.1816 32.8378 50.5002 32.8378C50.8085 32.8378 51.0705 32.9457 51.2863 33.1615C51.5021 33.3773 51.61 33.6445 51.61 33.963C51.61 34.2816 51.5021 34.5488 51.2863 34.7646C51.0705 34.9804 50.8085 35.0883 50.5002 35.0883ZM51.3634 36.2136V44.707H49.6061V36.2136H51.3634ZM57.0926 36.0748C57.7503 36.0748 58.3309 36.2084 58.8344 36.4756C59.3482 36.7325 59.749 37.0562 60.0368 37.4467V36.2136H61.8094V44.8458C61.8094 45.6268 61.645 46.3204 61.3162 46.9267C60.9873 47.5433 60.5095 48.0263 59.8826 48.3757C59.266 48.7251 58.5261 48.8998 57.6629 48.8998C56.5119 48.8998 55.5562 48.6275 54.7958 48.0828C54.0353 47.5485 53.6037 46.8188 53.501 45.894H55.2428C55.3764 46.3358 55.659 46.6904 56.0906 46.9576C56.5325 47.235 57.0566 47.3738 57.6629 47.3738C58.372 47.3738 58.9423 47.158 59.3739 46.7263C59.8158 46.2947 60.0368 45.6679 60.0368 44.8458V43.4276C59.7387 43.8284 59.3328 44.1675 58.819 44.445C58.3155 44.7122 57.74 44.8458 57.0926 44.8458C56.3527 44.8458 55.6744 44.6608 55.0578 44.2908C54.4515 43.9106 53.9685 43.3865 53.6089 42.7185C53.2595 42.0403 53.0848 41.2747 53.0848 40.4218C53.0848 39.5688 53.2595 38.8135 53.6089 38.1558C53.9685 37.4981 54.4515 36.9894 55.0578 36.6298C55.6744 36.2598 56.3527 36.0748 57.0926 36.0748ZM60.0368 40.4526C60.0368 39.8668 59.9134 39.3582 59.6668 38.9265C59.4305 38.4949 59.117 38.1661 58.7265 37.94C58.336 37.7139 57.9147 37.6009 57.4625 37.6009C57.0104 37.6009 56.589 37.7139 56.1985 37.94C55.808 38.1558 55.4894 38.4795 55.2428 38.9111C55.0065 39.3325 54.8883 39.836 54.8883 40.4218C54.8883 41.0075 55.0065 41.5213 55.2428 41.9632C55.4894 42.4051 55.808 42.7442 56.1985 42.9806C56.5993 43.2067 57.0206 43.3197 57.4625 43.3197C57.9147 43.3197 58.336 43.2067 58.7265 42.9806C59.117 42.7545 59.4305 42.4257 59.6668 41.9941C59.9134 41.5522 60.0368 41.0383 60.0368 40.4526ZM68.5107 36.0748C69.1581 36.0748 69.7336 36.2136 70.2372 36.491C70.751 36.7685 71.1518 37.1796 71.4395 37.7242C71.7375 38.2689 71.8865 38.9265 71.8865 39.6973V44.707H70.1447V39.9593C70.1447 39.1989 69.9546 38.6183 69.5743 38.2175C69.1941 37.8064 68.6751 37.6009 68.0174 37.6009C67.3598 37.6009 66.8357 37.8064 66.4452 38.2175C66.0649 38.6183 65.8748 39.1989 65.8748 39.9593V44.707H64.1175V33.3002H65.8748V37.2001C66.1728 36.8404 66.5479 36.563 67.0001 36.3677C67.4625 36.1725 67.9661 36.0748 68.5107 36.0748ZM76.1782 37.6471V42.3486C76.1782 42.6672 76.2501 42.8984 76.394 43.0423C76.5481 43.1758 76.805 43.2426 77.1647 43.2426H78.2437V44.707H76.8564C76.0651 44.707 75.4588 44.5221 75.0375 44.1521C74.6162 43.7822 74.4055 43.181 74.4055 42.3486V37.6471H73.4035V36.2136H74.4055V34.1018H76.1782V36.2136H78.2437V37.6471H76.1782ZM85.9177 37.6471V42.3486C85.9177 42.6672 85.9896 42.8984 86.1335 43.0423C86.2876 43.1758 86.5446 43.2426 86.9042 43.2426H87.9832V44.707H86.5959C85.8046 44.707 85.1983 44.5221 84.777 44.1521C84.3557 43.7822 84.145 43.181 84.145 42.3486V37.6471H83.1431V36.2136H84.145V34.1018H85.9177V36.2136H87.9832V37.6471H85.9177ZM91.3601 37.4467C91.617 37.0151 91.9562 36.6811 92.3775 36.4448C92.8091 36.1982 93.3178 36.0748 93.9036 36.0748V37.8938H93.4565C92.768 37.8938 92.2439 38.0685 91.8842 38.4179C91.5348 38.7673 91.3601 39.3736 91.3601 40.2368V44.707H89.6029V36.2136H91.3601V37.4467ZM94.9331 40.4218C94.9331 39.5688 95.1078 38.8135 95.4572 38.1558C95.8169 37.4981 96.2998 36.9894 96.9062 36.6298C97.5227 36.2598 98.201 36.0748 98.9409 36.0748C99.6089 36.0748 100.189 36.2084 100.683 36.4756C101.186 36.7325 101.587 37.0562 101.885 37.4467V36.2136H103.658V44.707H101.885V43.443C101.587 43.8438 101.181 44.1778 100.667 44.445C100.154 44.7122 99.5677 44.8458 98.9101 44.8458C98.1804 44.8458 97.5125 44.6608 96.9062 44.2908C96.2998 43.9106 95.8169 43.3865 95.4572 42.7185C95.1078 42.0403 94.9331 41.2747 94.9331 40.4218ZM101.885 40.4526C101.885 39.8668 101.762 39.3582 101.515 38.9265C101.279 38.4949 100.965 38.1661 100.575 37.94C100.184 37.7139 99.763 37.6009 99.3108 37.6009C98.8587 37.6009 98.4373 37.7139 98.0468 37.94C97.6563 38.1558 97.3378 38.4795 97.0911 38.9111C96.8548 39.3325 96.7366 39.836 96.7366 40.4218C96.7366 41.0075 96.8548 41.5213 97.0911 41.9632C97.3378 42.4051 97.6563 42.7442 98.0468 42.9806C98.4476 43.2067 98.869 43.3197 99.3108 43.3197C99.763 43.3197 100.184 43.2067 100.575 42.9806C100.965 42.7545 101.279 42.4257 101.515 41.9941C101.762 41.5522 101.885 41.0383 101.885 40.4526ZM105.38 40.4526C105.38 39.5791 105.555 38.8135 105.904 38.1558C106.264 37.4878 106.757 36.974 107.384 36.6143C108.011 36.2547 108.73 36.0748 109.542 36.0748C110.57 36.0748 111.418 36.3215 112.085 36.8147C112.764 37.2977 113.221 37.9914 113.457 38.8957H111.561C111.407 38.4744 111.161 38.1455 110.821 37.9092C110.482 37.6728 110.056 37.5546 109.542 37.5546C108.823 37.5546 108.247 37.8116 107.816 38.3254C107.394 38.8289 107.184 39.538 107.184 40.4526C107.184 41.3672 107.394 42.0814 107.816 42.5952C108.247 43.109 108.823 43.366 109.542 43.366C110.559 43.366 111.233 42.9189 111.561 42.0249H113.457C113.211 42.8881 112.748 43.5766 112.07 44.0904C111.392 44.594 110.549 44.8458 109.542 44.8458C108.73 44.8458 108.011 44.6659 107.384 44.3063C106.757 43.9363 106.264 43.4225 105.904 42.7648C105.555 42.0968 105.38 41.3261 105.38 40.4526ZM118.569 40.468L122.484 44.707H120.11L116.966 41.0538V44.707H115.209V33.3002H116.966V39.9285L120.049 36.2136H122.484L118.569 40.468ZM124.638 35.0883C124.319 35.0883 124.052 34.9804 123.836 34.7646C123.621 34.5488 123.513 34.2816 123.513 33.963C123.513 33.6445 123.621 33.3773 123.836 33.1615C124.052 32.9457 124.319 32.8378 124.638 32.8378C124.946 32.8378 125.208 32.9457 125.424 33.1615C125.64 33.3773 125.748 33.6445 125.748 33.963C125.748 34.2816 125.64 34.5488 125.424 34.7646C125.208 34.9804 124.946 35.0883 124.638 35.0883ZM125.501 36.2136V44.707H123.744V36.2136H125.501ZM132.094 36.0748C132.762 36.0748 133.358 36.2136 133.882 36.491C134.416 36.7685 134.832 37.1796 135.13 37.7242C135.428 38.2689 135.577 38.9265 135.577 39.6973V44.707H133.835V39.9593C133.835 39.1989 133.645 38.6183 133.265 38.2175C132.885 37.8064 132.366 37.6009 131.708 37.6009C131.05 37.6009 130.526 37.8064 130.136 38.2175C129.756 38.6183 129.566 39.1989 129.566 39.9593V44.707H127.808V36.2136H129.566V37.1847C129.853 36.8353 130.218 36.563 130.66 36.3677C131.112 36.1725 131.59 36.0748 132.094 36.0748ZM141.241 36.0748C141.899 36.0748 142.479 36.2084 142.983 36.4756C143.496 36.7325 143.897 37.0562 144.185 37.4467V36.2136H145.958V44.8458C145.958 45.6268 145.793 46.3204 145.464 46.9267C145.136 47.5433 144.658 48.0263 144.031 48.3757C143.414 48.7251 142.674 48.8998 141.811 48.8998C140.66 48.8998 139.704 48.6275 138.944 48.0828C138.184 47.5485 137.752 46.8188 137.649 45.894H139.391C139.525 46.3358 139.807 46.6904 140.239 46.9576C140.681 47.235 141.205 47.3738 141.811 47.3738C142.52 47.3738 143.091 47.158 143.522 46.7263C143.964 46.2947 144.185 45.6679 144.185 44.8458V43.4276C143.887 43.8284 143.481 44.1675 142.967 44.445C142.464 44.7122 141.888 44.8458 141.241 44.8458C140.501 44.8458 139.823 44.6608 139.206 44.2908C138.6 43.9106 138.117 43.3865 137.757 42.7185C137.408 42.0403 137.233 41.2747 137.233 40.4218C137.233 39.5688 137.408 38.8135 137.757 38.1558C138.117 37.4981 138.6 36.9894 139.206 36.6298C139.823 36.2598 140.501 36.0748 141.241 36.0748ZM144.185 40.4526C144.185 39.8668 144.062 39.3582 143.815 38.9265C143.579 38.4949 143.265 38.1661 142.875 37.94C142.484 37.7139 142.063 37.6009 141.611 37.6009C141.159 37.6009 140.737 37.7139 140.347 37.94C139.956 38.1558 139.638 38.4795 139.391 38.9111C139.155 39.3325 139.037 39.836 139.037 40.4218C139.037 41.0075 139.155 41.5213 139.391 41.9632C139.638 42.4051 139.956 42.7442 140.347 42.9806C140.748 43.2067 141.169 43.3197 141.611 43.3197C142.063 43.3197 142.484 43.2067 142.875 42.9806C143.265 42.7545 143.579 42.4257 143.815 41.9941C144.062 41.5522 144.185 41.0383 144.185 40.4526Z" fill="#0A0615"/>
</g>
<defs>
<filter id="filter0_d_2_364" x="-9.21941" y="-4.23162" width="364.171" height="312.147" filterUnits="userSpaceOnUse" color-interpolation-filters="sRGB">
<feFlood flood-opacity="0" result="BackgroundImageFix"/>
<feColorMatrix in="SourceAlpha" type="matrix" values="0 0 0 0 0 0 0 0 0 0 0 0 0 0 0 0 0 0 127 0" result="hardAlpha"/>
<feOffset dy="4.81707"/>
<feGaussianBlur stdDeviation="4.81707"/>
<feColorMatrix type="matrix" values="0 0 0 0 0.917647 0 0 0 0 0.941176 0 0 0 0 0.964706 0 0 0 0.601465 0"/>
<feBlend mode="normal" in2="BackgroundImageFix" result="effect1_dropShadow_2_364"/>
<feBlend mode="normal" in="SourceGraphic" in2="effect1_dropShadow_2_364" result="shape"/>
</filter>
<clipPath id="clip0_2_364">
<rect width="344.902" height="292.878" fill="white" transform="translate(0.414642 0.585449)"/>
</clipPath>
<clipPath id="clip1_2_364">
<rect width="238.927" height="15.4146" fill="white" transform="translate(69.7806 254.927)"/>
</clipPath>
<clipPath id="clip2_2_364">
<rect width="21.1951" height="169.561" fill="white" transform="translate(23.5367 69.9512)"/>
</clipPath>
</defs>
</svg>
