<svg width="346" height="294" viewBox="0 0 346 294" fill="none" xmlns="http://www.w3.org/2000/svg">
<g clip-path="url(#clip0_2_334)">
<g filter="url(#filter0_d_2_334)">
<rect x="0.414734" y="0.584961" width="344.902" height="292.878" rx="7.70732" fill="white"/>
</g>
<path d="M56.293 232.286H322.195" stroke="#E5E9EF" stroke-width="0.963415" stroke-linecap="square"/>
<path d="M56.293 155.213H322.195" stroke="#E5E9EF" stroke-width="0.963415" stroke-linecap="square"/>
<path d="M56.293 78.1399H322.195" stroke="#E5E9EF" stroke-width="0.963415" stroke-linecap="square"/>
<rect x="301" y="189.414" width="7.70732" height="42.3902" rx="3.85366" fill="#FF3B30"/>
<rect x="262.464" y="146.061" width="7.70732" height="85.7439" rx="3.85366" fill="#FF3B30"/>
<rect x="223.927" y="159.548" width="7.70732" height="72.2561" rx="3.85366" fill="#F5634A"/>
<rect x="185.39" y="88.2559" width="7.70732" height="143.549" rx="3.85366" fill="#FF3B30"/>
<rect x="146.854" y="185.561" width="7.70732" height="46.2439" rx="3.85366" fill="#F5634A"/>
<rect x="108.317" y="104.634" width="7.70732" height="127.171" rx="3.85366" fill="#F5634A"/>
<rect x="69.7806" y="168.219" width="7.70732" height="63.5854" rx="3.85366" fill="#F5634A"/>
<g clip-path="url(#clip1_2_334)">
<path d="M28.2455 76.2432H27.1786V69.3807C27.1786 68.8099 27.1962 68.2699 27.2313 67.7606C27.1391 67.8528 27.0359 67.9494 26.9218 68.0504C26.8076 68.1514 26.2851 68.5794 25.3543 69.3346L24.7748 68.5838L27.3235 66.6147H28.2455V76.2432ZM38.2955 71.4157C38.2955 73.0798 38.0321 74.3223 37.5052 75.1433C36.9827 75.9644 36.1815 76.3749 35.1014 76.3749C34.0652 76.3749 33.2771 75.9556 32.7371 75.117C32.197 74.274 31.927 73.0402 31.927 71.4157C31.927 69.7385 32.1883 68.4938 32.7107 67.6816C33.2332 66.8693 34.0301 66.4632 35.1014 66.4632C36.1463 66.4632 36.9388 66.8869 37.4789 67.7343C38.0233 68.5816 38.2955 69.8088 38.2955 71.4157ZM33.0334 71.4157C33.0334 72.8163 33.1981 73.8371 33.5274 74.4782C33.8567 75.1148 34.3813 75.4331 35.1014 75.4331C35.8302 75.4331 36.3571 75.1104 36.682 74.465C37.0113 73.8152 37.1759 72.7988 37.1759 71.4157C37.1759 70.0327 37.0113 69.0207 36.682 68.3797C36.3571 67.7343 35.8302 67.4115 35.1014 67.4115C34.3813 67.4115 33.8567 67.7299 33.5274 68.3665C33.1981 68.9987 33.0334 70.0152 33.0334 71.4157ZM46.0141 71.4157C46.0141 73.0798 45.7507 74.3223 45.2238 75.1433C44.7014 75.9644 43.9001 76.3749 42.82 76.3749C41.7838 76.3749 40.9957 75.9556 40.4557 75.117C39.9156 74.274 39.6456 73.0402 39.6456 71.4157C39.6456 69.7385 39.9069 68.4938 40.4293 67.6816C40.9518 66.8693 41.7487 66.4632 42.82 66.4632C43.865 66.4632 44.6574 66.8869 45.1975 67.7343C45.7419 68.5816 46.0141 69.8088 46.0141 71.4157ZM40.752 71.4157C40.752 72.8163 40.9167 73.8371 41.246 74.4782C41.5753 75.1148 42.0999 75.4331 42.82 75.4331C43.5488 75.4331 44.0757 75.1104 44.4006 74.465C44.7299 73.8152 44.8945 72.7988 44.8945 71.4157C44.8945 70.0327 44.7299 69.0207 44.4006 68.3797C44.0757 67.7343 43.5488 67.4115 42.82 67.4115C42.0999 67.4115 41.5753 67.7299 41.246 68.3665C40.9167 68.9987 40.752 70.0152 40.752 71.4157ZM53.7327 71.4157C53.7327 73.0798 53.4693 74.3223 52.9424 75.1433C52.42 75.9644 51.6187 76.3749 50.5386 76.3749C49.5024 76.3749 48.7143 75.9556 48.1743 75.117C47.6342 74.274 47.3642 73.0402 47.3642 71.4157C47.3642 69.7385 47.6255 68.4938 48.1479 67.6816C48.6704 66.8693 49.4673 66.4632 50.5386 66.4632C51.5836 66.4632 52.3761 66.8869 52.9161 67.7343C53.4605 68.5816 53.7327 69.8088 53.7327 71.4157ZM48.4706 71.4157C48.4706 72.8163 48.6353 73.8371 48.9646 74.4782C49.2939 75.1148 49.8186 75.4331 50.5386 75.4331C51.2674 75.4331 51.7943 75.1104 52.1192 74.465C52.4485 73.8152 52.6131 72.7988 52.6131 71.4157C52.6131 70.0327 52.4485 69.0207 52.1192 68.3797C51.7943 67.7343 51.2674 67.4115 50.5386 67.4115C49.8186 67.4115 49.2939 67.7299 48.9646 68.3665C48.6353 68.9987 48.4706 70.0152 48.4706 71.4157Z" fill="#404B52"/>
<path d="M27.205 148.398C28.2192 148.398 29.0161 148.651 29.5956 149.156C30.1796 149.656 30.4715 150.343 30.4715 151.217C30.4715 152.214 30.1532 152.995 29.5166 153.561C28.8844 154.128 28.0106 154.411 26.8954 154.411C25.811 154.411 24.9833 154.238 24.4126 153.891V152.837C24.7199 153.035 25.1019 153.19 25.5585 153.305C26.0151 153.414 26.4652 153.469 26.9086 153.469C27.6813 153.469 28.2807 153.287 28.7065 152.923C29.1368 152.558 29.352 152.031 29.352 151.342C29.352 149.998 28.5287 149.327 26.8823 149.327C26.4652 149.327 25.9076 149.39 25.2095 149.518L24.6431 149.156L25.0053 144.651H29.7932V145.658H25.9405L25.6968 148.55C26.2017 148.449 26.7044 148.398 27.205 148.398ZM38.2955 149.452C38.2955 151.116 38.0321 152.358 37.5052 153.179C36.9827 154 36.1815 154.411 35.1014 154.411C34.0652 154.411 33.2771 153.992 32.7371 153.153C32.197 152.31 31.927 151.076 31.927 149.452C31.927 147.775 32.1883 146.53 32.7107 145.718C33.2332 144.905 34.0301 144.499 35.1014 144.499C36.1463 144.499 36.9388 144.923 37.4789 145.77C38.0233 146.618 38.2955 147.845 38.2955 149.452ZM33.0334 149.452C33.0334 150.852 33.1981 151.873 33.5274 152.514C33.8567 153.151 34.3813 153.469 35.1014 153.469C35.8302 153.469 36.3571 153.147 36.682 152.501C37.0113 151.851 37.1759 150.835 37.1759 149.452C37.1759 148.069 37.0113 147.057 36.682 146.416C36.3571 145.77 35.8302 145.448 35.1014 145.448C34.3813 145.448 33.8567 145.766 33.5274 146.403C33.1981 147.035 33.0334 148.051 33.0334 149.452ZM46.0141 149.452C46.0141 151.116 45.7507 152.358 45.2238 153.179C44.7014 154 43.9001 154.411 42.82 154.411C41.7838 154.411 40.9957 153.992 40.4557 153.153C39.9156 152.31 39.6456 151.076 39.6456 149.452C39.6456 147.775 39.9069 146.53 40.4293 145.718C40.9518 144.905 41.7487 144.499 42.82 144.499C43.865 144.499 44.6574 144.923 45.1975 145.77C45.7419 146.618 46.0141 147.845 46.0141 149.452ZM40.752 149.452C40.752 150.852 40.9167 151.873 41.246 152.514C41.5753 153.151 42.0999 153.469 42.82 153.469C43.5488 153.469 44.0757 153.147 44.4006 152.501C44.7299 151.851 44.8945 150.835 44.8945 149.452C44.8945 148.069 44.7299 147.057 44.4006 146.416C44.0757 145.77 43.5488 145.448 42.82 145.448C42.0999 145.448 41.5753 145.766 41.246 146.403C40.9167 147.035 40.752 148.051 40.752 149.452Z" fill="#404B52"/>
<path d="M30.5769 227.489C30.5769 229.153 30.3135 230.396 29.7866 231.217C29.2641 232.038 28.4629 232.448 27.3828 232.448C26.3466 232.448 25.5585 232.029 25.0185 231.19C24.4784 230.347 24.2084 229.113 24.2084 227.489C24.2084 225.812 24.4696 224.567 24.9921 223.755C25.5146 222.943 26.3115 222.536 27.3828 222.536C28.4277 222.536 29.2202 222.96 29.7603 223.807C30.3047 224.655 30.5769 225.882 30.5769 227.489ZM25.3148 227.489C25.3148 228.89 25.4795 229.91 25.8088 230.551C26.1381 231.188 26.6627 231.506 27.3828 231.506C28.1116 231.506 28.6385 231.184 28.9634 230.538C29.2927 229.888 29.4573 228.872 29.4573 227.489C29.4573 226.106 29.2927 225.094 28.9634 224.453C28.6385 223.807 28.1116 223.485 27.3828 223.485C26.6627 223.485 26.1381 223.803 25.8088 224.44C25.4795 225.072 25.3148 226.088 25.3148 227.489Z" fill="#404B52"/>
</g>
<path d="M24.107 35.3273C24.107 34.2791 24.3485 33.3388 24.8315 32.5064C25.3248 31.6741 25.9876 31.0266 26.82 30.5642C27.6627 30.0915 28.5824 29.8551 29.5792 29.8551C30.7199 29.8551 31.7321 30.1377 32.6159 30.7029C33.51 31.2579 34.1574 32.0491 34.5581 33.0768H32.4463C32.1689 32.5116 31.7835 32.0903 31.2902 31.8128C30.797 31.5353 30.2266 31.3966 29.5792 31.3966C28.8701 31.3966 28.2381 31.5559 27.6832 31.8744C27.1283 32.193 26.6915 32.6503 26.373 33.2463C26.0647 33.8424 25.9105 34.536 25.9105 35.3273C25.9105 36.1186 26.0647 36.8123 26.373 37.4083C26.6915 38.0043 27.1283 38.4668 27.6832 38.7956C28.2381 39.1142 28.8701 39.2735 29.5792 39.2735C30.2266 39.2735 30.797 39.1347 31.2902 38.8573C31.7835 38.5798 32.1689 38.1585 32.4463 37.5933H34.5581C34.1574 38.6209 33.51 39.4122 32.6159 39.9671C31.7321 40.5221 30.7199 40.7995 29.5792 40.7995C28.5721 40.7995 27.6524 40.5683 26.82 40.1059C25.9876 39.6331 25.3248 38.9806 24.8315 38.1482C24.3485 37.3158 24.107 36.3755 24.107 35.3273ZM36.0293 36.4218C36.0293 35.5688 36.204 34.8135 36.5534 34.1558C36.9131 33.4981 37.396 32.9894 38.0024 32.6298C38.6189 32.2598 39.2972 32.0748 40.0371 32.0748C40.7051 32.0748 41.2857 32.2084 41.7789 32.4756C42.2825 32.7325 42.6833 33.0562 42.9813 33.4467V32.2136H44.754V40.707H42.9813V39.443C42.6833 39.8438 42.2773 40.1778 41.7635 40.445C41.2497 40.7122 40.6639 40.8458 40.0063 40.8458C39.2766 40.8458 38.6087 40.6608 38.0024 40.2908C37.396 39.9106 36.9131 39.3865 36.5534 38.7185C36.204 38.0403 36.0293 37.2747 36.0293 36.4218ZM42.9813 36.4526C42.9813 35.8668 42.858 35.3582 42.6113 34.9265C42.375 34.4949 42.0615 34.1661 41.671 33.94C41.2805 33.7139 40.8592 33.6009 40.407 33.6009C39.9549 33.6009 39.5335 33.7139 39.143 33.94C38.7525 34.1558 38.434 34.4795 38.1873 34.9111C37.951 35.3325 37.8328 35.836 37.8328 36.4218C37.8328 37.0075 37.951 37.5213 38.1873 37.9632C38.434 38.4051 38.7525 38.7442 39.143 38.9806C39.5438 39.2067 39.9651 39.3197 40.407 39.3197C40.8592 39.3197 41.2805 39.2067 41.671 38.9806C42.0615 38.7545 42.375 38.4257 42.6113 37.9941C42.858 37.5522 42.9813 37.0383 42.9813 36.4526ZM48.8193 29.3002V40.707H47.0621V29.3002H48.8193ZM54.8106 40.8458C54.009 40.8458 53.2845 40.6659 52.6371 40.3063C51.9897 39.9363 51.481 39.4225 51.1111 38.7648C50.7411 38.0968 50.5561 37.3261 50.5561 36.4526C50.5561 35.5894 50.7462 34.8238 51.1265 34.1558C51.5067 33.4878 52.0257 32.974 52.6833 32.6143C53.341 32.2547 54.0758 32.0748 54.8876 32.0748C55.6995 32.0748 56.4342 32.2547 57.0919 32.6143C57.7496 32.974 58.2686 33.4878 58.6488 34.1558C59.029 34.8238 59.2192 35.5894 59.2192 36.4526C59.2192 37.3158 59.0239 38.0814 58.6334 38.7494C58.2429 39.4173 57.7085 39.9363 57.0303 40.3063C56.3623 40.6659 55.6224 40.8458 54.8106 40.8458ZM54.8106 39.3197C55.2627 39.3197 55.6841 39.2118 56.0746 38.996C56.4753 38.7802 56.7991 38.4565 57.0457 38.0249C57.2923 37.5933 57.4156 37.0692 57.4156 36.4526C57.4156 35.836 57.2975 35.317 57.0611 34.8957C56.8247 34.4641 56.5113 34.1404 56.1208 33.9246C55.7303 33.7088 55.309 33.6009 54.8568 33.6009C54.4046 33.6009 53.9833 33.7088 53.5928 33.9246C53.2126 34.1404 52.9094 34.4641 52.6833 34.8957C52.4573 35.317 52.3442 35.836 52.3442 36.4526C52.3442 37.3672 52.5754 38.0763 53.0379 38.5798C53.5106 39.0731 54.1015 39.3197 54.8106 39.3197ZM62.7136 33.4467C62.9705 33.0151 63.3096 32.6811 63.7309 32.4448C64.1626 32.1982 64.6712 32.0748 65.257 32.0748V33.8938H64.81C64.1214 33.8938 63.5973 34.0685 63.2377 34.4179C62.8883 34.7673 62.7136 35.3736 62.7136 36.2368V40.707H60.9563V32.2136H62.7136V33.4467ZM67.7663 31.0883C67.4478 31.0883 67.1806 30.9804 66.9648 30.7646C66.749 30.5488 66.6411 30.2816 66.6411 29.963C66.6411 29.6445 66.749 29.3773 66.9648 29.1615C67.1806 28.9457 67.4478 28.8378 67.7663 28.8378C68.0746 28.8378 68.3367 28.9457 68.5525 29.1615C68.7683 29.3773 68.8762 29.6445 68.8762 29.963C68.8762 30.2816 68.7683 30.5488 68.5525 30.7646C68.3367 30.9804 68.0746 31.0883 67.7663 31.0883ZM68.6295 32.2136V40.707H66.8723V32.2136H68.6295ZM78.7211 36.2522C78.7211 36.5708 78.7005 36.8585 78.6594 37.1154H72.1699C72.2212 37.7937 72.473 38.3383 72.9252 38.7494C73.3773 39.1604 73.9323 39.366 74.5899 39.366C75.5354 39.366 76.2033 38.9703 76.5939 38.179H78.4899C78.2329 38.96 77.7654 39.6023 77.0871 40.1059C76.4192 40.5991 75.5868 40.8458 74.5899 40.8458C73.7781 40.8458 73.0485 40.6659 72.4011 40.3063C71.7639 39.9363 71.2604 39.4225 70.8904 38.7648C70.5308 38.0968 70.3509 37.3261 70.3509 36.4526C70.3509 35.5791 70.5256 34.8135 70.875 34.1558C71.2347 33.4878 71.7331 32.974 72.3702 32.6143C73.0177 32.2547 73.7576 32.0748 74.5899 32.0748C75.3915 32.0748 76.1057 32.2495 76.7326 32.5989C77.3594 32.9483 77.8476 33.4416 78.197 34.0787C78.5464 34.7056 78.7211 35.4301 78.7211 36.2522ZM76.8867 35.6973C76.8765 35.0499 76.6452 34.5309 76.1931 34.1404C75.7409 33.7499 75.1808 33.5546 74.5129 33.5546C73.9066 33.5546 73.3876 33.7499 72.956 34.1404C72.5244 34.5206 72.2675 35.0396 72.1853 35.6973H76.8867ZM83.5333 40.8458C82.8654 40.8458 82.2642 40.7276 81.7298 40.4912C81.2057 40.2446 80.7895 39.9157 80.4812 39.5047C80.1729 39.0834 80.0085 38.6158 79.988 38.102H81.8069C81.8377 38.4616 82.0073 38.7648 82.3156 39.0114C82.6341 39.2478 83.0298 39.366 83.5025 39.366C83.9958 39.366 84.376 39.2735 84.6432 39.0885C84.9206 38.8932 85.0594 38.6466 85.0594 38.3486C85.0594 38.03 84.9052 37.7937 84.5969 37.6395C84.2989 37.4854 83.8211 37.3158 83.1634 37.1308C82.5262 36.9561 82.0073 36.7866 81.6065 36.6222C81.2057 36.4577 80.8563 36.206 80.5583 35.8668C80.2706 35.5277 80.1267 35.0807 80.1267 34.5258C80.1267 34.0736 80.2603 33.6625 80.5275 33.2926C80.7947 32.9124 81.1749 32.6143 81.6682 32.3985C82.1717 32.1827 82.7472 32.0748 83.3946 32.0748C84.3606 32.0748 85.1365 32.3215 85.7222 32.8147C86.3182 33.2977 86.6368 33.9606 86.6779 34.8032H84.9206C84.8898 34.423 84.7357 34.1198 84.4582 33.8938C84.1807 33.6677 83.8057 33.5546 83.3329 33.5546C82.8705 33.5546 82.516 33.642 82.2693 33.8167C82.0227 33.9914 81.8994 34.2226 81.8994 34.5103C81.8994 34.7364 81.9816 34.9265 82.146 35.0807C82.3104 35.2348 82.5108 35.3582 82.7472 35.4506C82.9835 35.5329 83.3329 35.6408 83.7954 35.7743C84.412 35.9388 84.9155 36.1083 85.306 36.283C85.7068 36.4475 86.0511 36.6941 86.3388 37.0229C86.6265 37.3518 86.7755 37.7885 86.7858 38.3332C86.7858 38.8162 86.6522 39.2478 86.385 39.628C86.1178 40.0082 85.7376 40.3063 85.2444 40.5221C84.7614 40.7379 84.191 40.8458 83.5333 40.8458ZM94.446 33.4776C94.7441 33.0665 95.15 32.7325 95.6638 32.4756C96.1879 32.2084 96.7685 32.0748 97.4057 32.0748C98.1558 32.0748 98.8341 32.2547 99.4404 32.6143C100.047 32.974 100.525 33.4878 100.874 34.1558C101.223 34.8135 101.398 35.5688 101.398 36.4218C101.398 37.2747 101.223 38.0403 100.874 38.7185C100.525 39.3865 100.042 39.9106 99.425 40.2908C98.8187 40.6608 98.1456 40.8458 97.4057 40.8458C96.748 40.8458 96.1622 40.7173 95.6484 40.4604C95.1448 40.2035 94.7441 39.8746 94.446 39.4739V40.707H92.6888V29.3002H94.446V33.4776ZM99.6099 36.4218C99.6099 35.836 99.4866 35.3325 99.24 34.9111C99.0036 34.4795 98.6851 34.1558 98.2843 33.94C97.8938 33.7139 97.4724 33.6009 97.0203 33.6009C96.5784 33.6009 96.1571 33.7139 95.7563 33.94C95.3658 34.1661 95.0472 34.4949 94.8006 34.9265C94.5642 35.3582 94.446 35.8668 94.446 36.4526C94.446 37.0383 94.5642 37.5522 94.8006 37.9941C95.0472 38.4257 95.3658 38.7545 95.7563 38.9806C96.1571 39.2067 96.5784 39.3197 97.0203 39.3197C97.4724 39.3197 97.8938 39.2067 98.2843 38.9806C98.6851 38.7442 99.0036 38.4051 99.24 37.9632C99.4866 37.5213 99.6099 37.0075 99.6099 36.4218ZM110.828 32.2136V40.707H109.07V39.7051C108.793 40.0545 108.428 40.3319 107.976 40.5375C107.534 40.7327 107.061 40.8303 106.558 40.8303C105.89 40.8303 105.289 40.6916 104.754 40.4142C104.23 40.1367 103.814 39.7256 103.506 39.181C103.208 38.6363 103.059 37.9786 103.059 37.2079V32.2136H104.801V36.9459C104.801 37.7063 104.991 38.2921 105.371 38.7031C105.751 39.1039 106.27 39.3043 106.928 39.3043C107.585 39.3043 108.104 39.1039 108.485 38.7031C108.875 38.2921 109.07 37.7063 109.07 36.9459V32.2136H110.828ZM114.904 33.4467C115.16 33.0151 115.5 32.6811 115.921 32.4448C116.353 32.1982 116.861 32.0748 117.447 32.0748V33.8938H117C116.311 33.8938 115.787 34.0685 115.428 34.4179C115.078 34.7673 114.904 35.3736 114.904 36.2368V40.707H113.146V32.2136H114.904V33.4467ZM123.348 32.0748C124.015 32.0748 124.612 32.2136 125.136 32.491C125.67 32.7685 126.086 33.1796 126.384 33.7242C126.682 34.2689 126.831 34.9265 126.831 35.6973V40.707H125.089V35.9593C125.089 35.1989 124.899 34.6183 124.519 34.2175C124.139 33.8064 123.62 33.6009 122.962 33.6009C122.304 33.6009 121.78 33.8064 121.39 34.2175C121.01 34.6183 120.82 35.1989 120.82 35.9593V40.707H119.062V32.2136H120.82V33.1847C121.107 32.8353 121.472 32.563 121.914 32.3677C122.366 32.1725 122.844 32.0748 123.348 32.0748ZM136.857 36.2522C136.857 36.5708 136.837 36.8585 136.795 37.1154H130.306C130.357 37.7937 130.609 38.3383 131.061 38.7494C131.513 39.1604 132.068 39.366 132.726 39.366C133.671 39.366 134.339 38.9703 134.73 38.179H136.626C136.369 38.96 135.901 39.6023 135.223 40.1059C134.555 40.5991 133.723 40.8458 132.726 40.8458C131.914 40.8458 131.185 40.6659 130.537 40.3063C129.9 39.9363 129.396 39.4225 129.026 38.7648C128.667 38.0968 128.487 37.3261 128.487 36.4526C128.487 35.5791 128.662 34.8135 129.011 34.1558C129.371 33.4878 129.869 32.974 130.506 32.6143C131.154 32.2547 131.894 32.0748 132.726 32.0748C133.528 32.0748 134.242 32.2495 134.869 32.5989C135.495 32.9483 135.984 33.4416 136.333 34.0787C136.682 34.7056 136.857 35.4301 136.857 36.2522ZM135.023 35.6973C135.013 35.0499 134.781 34.5309 134.329 34.1404C133.877 33.7499 133.317 33.5546 132.649 33.5546C132.043 33.5546 131.524 33.7499 131.092 34.1404C130.66 34.5206 130.404 35.0396 130.321 35.6973H135.023ZM138.001 36.4218C138.001 35.5688 138.175 34.8135 138.525 34.1558C138.884 33.4981 139.367 32.9894 139.974 32.6298C140.59 32.2598 141.274 32.0748 142.024 32.0748C142.579 32.0748 143.123 32.1982 143.658 32.4448C144.203 32.6811 144.634 32.9997 144.953 33.4005V29.3002H146.725V40.707H144.953V39.4276C144.665 39.8387 144.264 40.1778 143.75 40.445C143.247 40.7122 142.666 40.8458 142.008 40.8458C141.269 40.8458 140.59 40.6608 139.974 40.2908C139.367 39.9106 138.884 39.3865 138.525 38.7185C138.175 38.0403 138.001 37.2747 138.001 36.4218ZM144.953 36.4526C144.953 35.8668 144.829 35.3582 144.583 34.9265C144.346 34.4949 144.033 34.1661 143.642 33.94C143.252 33.7139 142.831 33.6009 142.378 33.6009C141.926 33.6009 141.505 33.7139 141.114 33.94C140.724 34.1558 140.405 34.4795 140.159 34.9111C139.922 35.3325 139.804 35.836 139.804 36.4218C139.804 37.0075 139.922 37.5213 140.159 37.9632C140.405 38.4051 140.724 38.7442 141.114 38.9806C141.515 39.2067 141.937 39.3197 142.378 39.3197C142.831 39.3197 143.252 39.2067 143.642 38.9806C144.033 38.7545 144.346 38.4257 144.583 37.9941C144.829 37.5522 144.953 37.0383 144.953 36.4526Z" fill="#0A0615"/>
</g>
<g clip-path="url(#clip2_2_334)">
<path d="M76.5379 260.62C76.5379 261.467 76.2306 262.128 75.6159 262.602C75.0012 263.076 74.167 263.313 73.1133 263.313C71.9717 263.313 71.0936 263.166 70.4789 262.872V261.792C70.8741 261.959 71.3043 262.091 71.7697 262.187C72.2351 262.284 72.6962 262.332 73.1528 262.332C73.8992 262.332 74.4612 262.192 74.8387 261.911C75.2163 261.625 75.4051 261.23 75.4051 260.725C75.4051 260.391 75.3371 260.119 75.201 259.908C75.0693 259.693 74.8453 259.496 74.5292 259.316C74.2175 259.136 73.7411 258.932 73.1001 258.703C72.2044 258.383 71.5634 258.003 71.177 257.564C70.795 257.125 70.6041 256.552 70.6041 255.845C70.6041 255.103 70.8829 254.512 71.4405 254.073C71.9981 253.634 72.7357 253.415 73.6533 253.415C74.6104 253.415 75.4907 253.59 76.2942 253.942L75.9452 254.916C75.1505 254.583 74.3777 254.416 73.627 254.416C73.0342 254.416 72.571 254.543 72.2373 254.798C71.9037 255.053 71.7368 255.406 71.7368 255.858C71.7368 256.192 71.7983 256.466 71.9212 256.681C72.0442 256.892 72.2505 257.088 72.5403 257.268C72.8345 257.443 73.2823 257.639 73.8838 257.854C74.8936 258.214 75.5873 258.6 75.9649 259.013C76.3469 259.426 76.5379 259.961 76.5379 260.62Z" fill="#404B52"/>
<path d="M111.012 263.33L107.745 254.795H107.693C107.754 255.471 107.785 256.274 107.785 257.205V263.33H106.751V253.702H108.437L111.486 261.644H111.539L114.614 253.702H116.287V263.33H115.168V257.126C115.168 256.415 115.198 255.642 115.26 254.808H115.207L111.914 263.33H111.012Z" fill="#404B52"/>
<path d="M151.141 263.33H150.022V254.696H146.972V253.702H154.191V254.696H151.141V263.33Z" fill="#404B52"/>
<path d="M192.228 263.33H191.121L189.178 256.883C189.086 256.597 188.983 256.237 188.869 255.802C188.755 255.368 188.695 255.107 188.691 255.019C188.594 255.598 188.441 256.233 188.23 256.922L186.346 263.33H185.24L182.678 253.702H183.864L185.385 259.649C185.596 260.483 185.749 261.238 185.846 261.914C185.964 261.111 186.14 260.325 186.373 259.556L188.098 253.702H189.284L191.095 259.609C191.306 260.29 191.483 261.058 191.628 261.914C191.712 261.291 191.87 260.531 192.102 259.635L193.617 253.702H194.803L192.228 263.33Z" fill="#404B52"/>
<path d="M228.215 263.33H227.095V254.696H224.046V253.702H231.264V254.696H228.215V263.33Z" fill="#404B52"/>
<path d="M264.907 263.33H263.787V253.702H269.155V254.696H264.907V258.219H268.898V259.214H264.907V263.33Z" fill="#404B52"/>
<path d="M307.757 260.768C307.757 261.616 307.45 262.276 306.835 262.751C306.221 263.225 305.386 263.462 304.333 263.462C303.191 263.462 302.313 263.315 301.698 263.021V261.94C302.094 262.107 302.524 262.239 302.989 262.336C303.455 262.432 303.916 262.481 304.372 262.481C305.119 262.481 305.681 262.34 306.058 262.059C306.436 261.774 306.625 261.378 306.625 260.874C306.625 260.54 306.557 260.268 306.42 260.057C306.289 259.842 306.065 259.644 305.749 259.464C305.437 259.284 304.961 259.08 304.32 258.852C303.424 258.531 302.783 258.151 302.397 257.712C302.015 257.273 301.824 256.7 301.824 255.993C301.824 255.251 302.102 254.661 302.66 254.222C303.218 253.783 303.955 253.563 304.873 253.563C305.83 253.563 306.71 253.739 307.514 254.09L307.165 255.065C306.37 254.731 305.597 254.564 304.846 254.564C304.254 254.564 303.791 254.692 303.457 254.946C303.123 255.201 302.956 255.554 302.956 256.007C302.956 256.34 303.018 256.615 303.141 256.83C303.264 257.041 303.47 257.236 303.76 257.416C304.054 257.592 304.502 257.787 305.103 258.002C306.113 258.362 306.807 258.749 307.184 259.161C307.566 259.574 307.757 260.11 307.757 260.768Z" fill="#404B52"/>
</g>
<defs>
<filter id="filter0_d_2_334" x="-9.21941" y="-4.23211" width="364.171" height="312.146" filterUnits="userSpaceOnUse" color-interpolation-filters="sRGB">
<feFlood flood-opacity="0" result="BackgroundImageFix"/>
<feColorMatrix in="SourceAlpha" type="matrix" values="0 0 0 0 0 0 0 0 0 0 0 0 0 0 0 0 0 0 127 0" result="hardAlpha"/>
<feOffset dy="4.81707"/>
<feGaussianBlur stdDeviation="4.81707"/>
<feColorMatrix type="matrix" values="0 0 0 0 0.917647 0 0 0 0 0.941176 0 0 0 0 0.964706 0 0 0 0.601465 0"/>
<feBlend mode="normal" in2="BackgroundImageFix" result="effect1_dropShadow_2_334"/>
<feBlend mode="normal" in="SourceGraphic" in2="effect1_dropShadow_2_334" result="shape"/>
</filter>
<clipPath id="clip0_2_334">
<rect width="344.902" height="292.878" fill="white" transform="translate(0.414642 0.584961)"/>
</clipPath>
<clipPath id="clip1_2_334">
<rect width="32.7561" height="171.488" fill="white" transform="translate(23.5367 62.2432)"/>
</clipPath>
<clipPath id="clip2_2_334">
<rect width="239.89" height="23.2702" fill="white" transform="translate(69.7806 246.182)"/>
</clipPath>
</defs>
</svg>
