<svg width="32" height="32" viewBox="0 0 32 32" fill="none" xmlns="http://www.w3.org/2000/svg">
<mask id="mask0_2_4561" style="mask-type:luminance" maskUnits="userSpaceOnUse" x="0" y="0" width="32" height="32">
<path fill-rule="evenodd" clip-rule="evenodd" d="M0.360352 0.346069H31.1531V31.1388H0.360352V0.346069Z" fill="white"/>
</mask>
<g mask="url(#mask0_2_4561)">
<path fill-rule="evenodd" clip-rule="evenodd" d="M31.1531 15.8365C31.1531 7.28138 24.2599 0.346069 15.7567 0.346069C7.25354 0.346069 0.360352 7.28138 0.360352 15.8365C0.360352 23.5683 5.99059 29.9767 13.351 31.1388V20.3143H9.44181V15.8365H13.351V12.4238C13.351 8.5415 15.6496 6.39704 19.1665 6.39704C20.851 6.39704 22.6129 6.69958 22.6129 6.69958V10.5117H20.6715C18.7589 10.5117 18.1624 11.7058 18.1624 12.9308V15.8365H22.4325L21.7499 20.3143H18.1624V31.1388C25.5229 29.9767 31.1531 23.5683 31.1531 15.8365Z" fill="#1877F2"/>
</g>
<path fill-rule="evenodd" clip-rule="evenodd" d="M21.6098 20.0867L22.308 15.593H17.9405V12.6768C17.9405 11.4474 18.5505 10.2491 20.5068 10.2491H22.4926V6.42335C22.4926 6.42335 20.6904 6.11972 18.9675 6.11972C15.3703 6.11972 13.0192 8.27185 13.0192 12.168V15.593H9.02075V20.0867H13.0192V30.95C13.821 31.0742 14.6428 31.1388 15.4798 31.1388C16.3169 31.1388 17.1387 31.0742 17.9405 30.95V20.0867H21.6098Z" fill="white"/>
</svg>
