<svg width="32" height="32" viewBox="0 0 32 32" fill="none" xmlns="http://www.w3.org/2000/svg">
<path d="M30.7409 12.7271H29.5007V12.6632H15.6439V18.8217H24.3452C23.0758 22.4068 19.6647 24.9803 15.6439 24.9803C10.5423 24.9803 6.40611 20.844 6.40611 15.7424C6.40611 10.6409 10.5423 6.50462 15.6439 6.50462C17.9988 6.50462 20.1412 7.39299 21.7725 8.8441L26.1273 4.48924C23.3775 1.92651 19.6993 0.346069 15.6439 0.346069C7.14129 0.346069 0.247559 7.2398 0.247559 15.7424C0.247559 24.2451 7.14129 31.1388 15.6439 31.1388C24.1466 31.1388 31.0403 24.2451 31.0403 15.7424C31.0403 14.7101 30.9341 13.7024 30.7409 12.7271Z" fill="#FFC107"/>
<path d="M2.17212 8.30558L7.22058 11.8934C8.58661 8.61604 11.8949 6.30212 15.7663 6.30212C18.1165 6.30212 20.2547 7.16128 21.8827 8.56467L26.229 4.353C23.4846 1.87454 19.8137 0.346069 15.7663 0.346069C9.86428 0.346069 4.74591 3.57499 2.17212 8.30558Z" fill="#FF3D00"/>
<path d="M15.8946 31.1388C19.876 31.1388 23.4937 29.5879 26.229 27.0657L21.4583 22.9565C19.8587 24.1948 17.9041 24.8645 15.8946 24.8629C11.8853 24.8629 8.48113 22.2607 7.19867 18.6293L2.17212 22.5714C4.72316 27.6525 9.90385 31.1388 15.8946 31.1388Z" fill="#4CAF50"/>
<path d="M30.741 12.9193H29.5008V12.8556H15.644V18.9886H24.3453C23.7381 20.6877 22.6443 22.1725 21.1991 23.2594L21.2014 23.2579L25.9665 27.2734C25.6294 27.5786 31.0404 23.5883 31.0404 15.9221C31.0404 14.8941 30.9342 13.8906 30.741 12.9193Z" fill="#1976D2"/>
</svg>
