<svg width="25" height="21" viewBox="0 0 25 21" fill="none" xmlns="http://www.w3.org/2000/svg">
<path d="M17.635 20.5121H6.80027C3.14908 20.5121 0.189194 17.5238 0.189194 13.8377V2.86449C0.189194 1.45052 1.32452 0.304321 2.72508 0.304321H21.7102C23.1107 0.304321 24.246 1.45052 24.246 2.86449V13.8377C24.246 17.5238 21.2862 20.5121 17.635 20.5121Z" fill="#E0E0E0"/>
<path d="M21.522 0.304321H19.963C21.4674 0.304321 22.687 1.44985 22.687 2.86297V13.8416C22.687 17.5256 19.5076 20.5121 15.5855 20.5121H17.1444C21.0665 20.5121 24.246 17.5256 24.246 13.8416V2.86297C24.246 1.44985 23.0264 0.304321 21.522 0.304321V0.304321Z" fill="#BDBDBD"/>
<path d="M2.11367 14.328V3.3265C2.11367 2.72027 2.59967 2.22888 3.19915 2.22888H22.1982C22.7977 2.22888 23.2837 2.72032 23.2837 3.3265V14.328C23.2837 17.2119 20.9717 19.5498 18.1197 19.5498H7.27775C4.42569 19.5498 2.11367 17.2119 2.11367 14.328Z" fill="#FFD54F"/>
<path d="M22.1786 2.22888H20.6999C21.3102 2.22888 21.805 2.72003 21.805 3.32588V14.3311C21.805 17.2133 19.4513 19.5498 16.5477 19.5498H18.0264C20.9299 19.5498 23.2837 17.2133 23.2837 14.3311V3.32588C23.2837 2.72003 22.7889 2.22888 22.1786 2.22888V2.22888Z" fill="#FFC328"/>
<path d="M15.7178 7.04026H8.71773C8.52497 7.04026 8.36871 6.85021 8.36871 6.61578V4.95987C8.36871 3.98307 9.01979 3.19116 9.82297 3.19116H14.6126C15.4158 3.19116 16.0669 3.98302 16.0669 4.95987V6.61578C16.0669 6.85021 15.9106 7.04026 15.7178 7.04026Z" fill="#BBF7FF"/>
<path d="M13.1799 15.7008C12.9142 15.7008 12.6988 15.3632 12.6988 14.9467V9.71888C12.6988 9.30246 12.9142 8.96484 13.1799 8.96484C13.4456 8.96484 13.6611 9.30241 13.6611 9.71888V14.9468C13.6611 15.3632 13.4456 15.7008 13.1799 15.7008Z" fill="#546E7A"/>
<path d="M12.601 5.51051L11.3413 4.25081C11.2115 4.12099 11.001 4.12099 10.8712 4.25081C10.7414 4.38064 10.7414 4.59113 10.8712 4.72091L12.1309 5.98061C12.1958 6.0455 12.2809 6.07799 12.3659 6.07799C12.451 6.07799 12.5361 6.04554 12.601 5.98061C12.7308 5.85083 12.7308 5.64033 12.601 5.51051Z" fill="#F74F68"/>
<path d="M12.6984 6.07749H11.7366V5.62866C11.7366 5.34538 11.9519 5.11572 12.2175 5.11572C12.4831 5.11572 12.6984 5.34538 12.6984 5.62866V6.07749Z" fill="#546E7A"/>
<path fill-rule="evenodd" clip-rule="evenodd" d="M9.72526 3.19116H14.7104C15.7237 3.19116 16.5481 3.9961 16.5481 4.98549V6.36914C16.5481 6.73919 16.2398 7.04026 15.8608 7.04026H8.57491C8.19593 7.04026 7.88759 6.73919 7.88759 6.36914V4.98549C7.88759 3.9961 8.71197 3.19116 9.72526 3.19116ZM15.8613 6.40748C15.8829 6.40748 15.9004 6.39031 15.9004 6.36921V4.98556C15.9004 4.34512 15.3669 3.82408 14.711 3.82408H9.72583C9.06992 3.82408 8.53629 4.34512 8.53629 4.98556V6.36921C8.53629 6.39031 8.55388 6.40748 8.57548 6.40748H15.8613Z" fill="#546E7A"/>
</svg>
