<svg width="24" height="24" viewBox="0 0 24 24" fill="none" xmlns="http://www.w3.org/2000/svg">
<path d="M22.4939 3.16721C22.7176 3.41401 22.9572 3.69311 23.2103 4.00758C23.3168 4.14037 23.3052 4.33112 23.1862 4.45014C23.1815 4.45483 23.1768 4.45953 23.1718 4.46392C23.1649 4.47017 22.4664 5.09098 21.3645 6.09641L16.6753 10.473C15.4923 11.6041 14.3707 12.6994 13.3436 13.7264C12.3165 14.7535 11.2209 15.8754 10.0877 17.0612L5.71069 21.7501C4.70774 22.8495 4.08697 23.5479 4.08072 23.5549C3.96325 23.6867 3.76249 23.704 3.62437 23.5934C3.31115 23.3416 3.0324 23.1022 2.78621 22.8792C1.67993 21.8769 1.22855 21.2019 1.20569 21.1678C1.12332 21.0422 1.13488 20.8765 1.2348 20.7641C1.24105 20.7572 1.86187 20.0587 2.86699 18.9571L7.25679 14.2542C8.39661 13.0618 9.49504 11.937 10.5246 10.9075C11.5538 9.87825 12.679 8.77947 13.8685 7.64249L13.8711 7.63997L18.5712 3.25237C19.6759 2.24473 20.3744 1.62396 20.3813 1.61766C20.4937 1.51775 20.6594 1.50614 20.7847 1.58886C20.8192 1.61142 21.4932 2.06249 22.4939 3.16721Z" fill="#C7CDE0"/>
<path d="M22.468 2.49609C22.699 2.75098 22.9465 3.03922 23.2079 3.36397C23.3178 3.50111 23.3059 3.69811 23.183 3.82102C23.1781 3.82587 23.1733 3.83072 23.1681 3.83525C23.161 3.8417 22.4396 4.48284 21.3015 5.52118L16.4584 10.041C15.2365 11.2091 14.078 12.3403 13.0173 13.401C11.9565 14.4616 10.8249 15.6203 9.65445 16.8449L5.13376 21.6873C4.09789 22.8226 3.45673 23.544 3.45028 23.5511C3.32896 23.6873 3.1216 23.7051 2.97895 23.5909C2.65544 23.3308 2.36754 23.0837 2.11327 22.8533C3.93584 20.7223 11.0458 12.6434 22.468 2.49609V2.49609Z" fill="#B1ACCC"/>
<path d="M10.5967 21.7964C10.5967 21.8872 10.5603 21.9739 10.4966 22.0377C10.4875 22.0467 10.4785 22.0551 10.4682 22.0628C10.0578 22.3907 9.6303 22.6629 9.23112 22.8842C8.29851 23.4005 7.52047 23.6379 7.47472 23.6515C7.36744 23.684 7.25082 23.6614 7.16318 23.5912C2.96234 20.2296 0.284578 16.7205 0.257827 16.6854C0.19211 16.5984 0.171829 16.4854 0.203047 16.3807C0.216902 16.3353 0.451104 15.567 0.961072 14.6422C1.18402 14.2383 1.45946 13.8044 1.79192 13.3876C1.85732 13.3055 1.95786 13.2578 2.06318 13.2594C2.16886 13.2607 2.26776 13.3107 2.3312 13.3947C2.36278 13.436 5.51538 17.5661 10.4685 21.5291C10.5497 21.5941 10.5967 21.6926 10.5967 21.7964Z" fill="#8389AA"/>
<path d="M10.597 21.7964C10.597 21.8872 10.5606 21.9739 10.4968 22.0377C10.4878 22.0467 10.4788 22.0551 10.4685 22.0628C10.0581 22.3907 9.63059 22.6629 9.23141 22.8842C4.51081 19.1705 0.961402 14.6422 0.961402 14.6422C1.18435 14.2383 1.45979 13.8044 1.79225 13.3876C1.85765 13.3055 1.95819 13.2578 2.06351 13.2594C2.16919 13.2607 2.26809 13.3107 2.33153 13.3947C2.36311 13.436 5.5157 17.5661 10.4688 21.5291C10.55 21.5941 10.597 21.6926 10.597 21.7964Z" fill="#646D91"/>
<path d="M14.4993 20.4742C14.5792 20.5412 14.6246 20.6401 14.6223 20.7441C14.6204 20.833 14.5843 20.9168 14.5225 20.9786C14.5115 20.9896 14.5002 20.9996 14.4877 21.0089C14.1684 21.2521 13.8369 21.4631 13.51 21.6444C12.4919 22.2113 11.5223 22.4955 11.127 22.5969C11.0119 22.6262 10.8898 22.6021 10.7948 22.5309C10.2407 22.116 8.20246 20.5444 5.75634 18.0986C3.12338 15.466 1.70043 13.5852 1.31834 13.0594C1.24939 12.9648 1.22651 12.8446 1.25554 12.7312C1.35476 12.3428 1.63408 11.3857 2.19108 10.3759C2.37697 10.0393 2.59345 9.69659 2.84442 9.36704C2.90854 9.28297 3.00744 9.23366 3.11276 9.23207C3.21812 9.23111 3.31829 9.2791 3.38369 9.36125C3.42744 9.41666 7.84808 14.9448 14.4993 20.4742Z" fill="#8389AA"/>
<path d="M14.4991 20.4742C14.5789 20.5412 14.6244 20.6401 14.6221 20.7441C14.6202 20.833 14.5841 20.9168 14.5223 20.9786C14.5113 20.9896 14.5 20.9996 14.4875 21.0089C14.1682 21.2521 13.8367 21.4631 13.5097 21.6444C7.92097 17.0466 3.63181 12.1041 2.19082 10.3759C2.37672 10.0393 2.59319 9.69659 2.84416 9.36704C2.90829 9.28297 3.00718 9.23366 3.1125 9.23207C3.21787 9.23111 3.31804 9.2791 3.38344 9.36125C3.42723 9.41666 7.84787 14.9448 14.4991 20.4742Z" fill="#646D91"/>
<path d="M21.4135 10.9796C21.5044 10.9796 21.591 10.9432 21.6548 10.8794C21.6638 10.8704 21.6722 10.8614 21.6799 10.8511C22.0078 10.4406 22.28 10.0132 22.5013 9.61398C23.0177 8.68136 23.2551 7.90333 23.2686 7.85757C23.3011 7.75029 23.2786 7.63367 23.2084 7.54603C19.8468 3.3452 16.3376 0.667431 16.3026 0.640679C16.2156 0.574962 16.1025 0.554682 15.9978 0.5859C15.9524 0.599754 15.1842 0.833957 14.2594 1.34392C13.8555 1.56687 13.4216 1.84232 13.0048 2.17478C12.9226 2.24017 12.8749 2.34071 12.8766 2.44603C12.8779 2.55172 12.9278 2.65061 13.0119 2.71405C13.0531 2.74563 17.1833 5.89823 21.1462 10.8513C21.2112 10.9326 21.3098 10.9796 21.4135 10.9796Z" fill="#8389AA"/>
<path d="M21.4135 10.9796C21.5044 10.9796 21.591 10.9432 21.6548 10.8794C21.6638 10.8704 21.6722 10.8614 21.6799 10.8511C22.0078 10.4407 22.28 10.0132 22.5013 9.614C18.7876 4.8934 14.2594 1.34399 14.2594 1.34399C13.8555 1.56694 13.4216 1.84239 13.0048 2.17485C12.9226 2.24024 12.8749 2.34078 12.8766 2.4461C12.8779 2.55178 12.9278 2.65068 13.0119 2.71412C13.0531 2.7457 17.1832 5.8983 21.1462 10.8514C21.2112 10.9326 21.3098 10.9796 21.4135 10.9796Z" fill="#646D91"/>
<path d="M20.0915 14.8825C20.1584 14.9624 20.2573 15.0078 20.3614 15.0055C20.4503 15.0036 20.5341 14.9675 20.5959 14.9057C20.6068 14.8948 20.6168 14.8835 20.6261 14.8709C20.8693 14.5517 21.0803 14.2202 21.2617 13.8932C21.8286 12.8752 22.1127 11.9055 22.2142 11.5102C22.2435 11.3952 22.2193 11.2731 22.1482 11.178C21.7333 10.6239 20.1617 8.58569 17.7159 6.13957C15.0832 3.5066 13.2024 2.08366 12.6767 1.70157C12.582 1.63262 12.4619 1.60974 12.3485 1.63877C11.96 1.73799 11.003 2.01731 9.99317 2.57431C9.65656 2.7602 9.31384 2.97668 8.9843 3.22765C8.90022 3.29177 8.85092 3.39067 8.84932 3.49599C8.84837 3.60135 8.89635 3.70152 8.97851 3.76692C9.03392 3.81067 14.562 8.23131 20.0915 14.8825Z" fill="#8389AA"/>
<path d="M20.0915 14.8827C20.1584 14.9626 20.2573 15.008 20.3614 15.0057C20.4503 15.0038 20.5341 14.9677 20.5959 14.9059C20.6068 14.895 20.6168 14.8837 20.6261 14.8711C20.8693 14.5519 21.0803 14.2204 21.2617 13.8934C16.6638 8.30461 11.7213 4.01545 9.99317 2.57446C9.65656 2.76036 9.31384 2.97683 8.9843 3.22781C8.90022 3.29193 8.85092 3.39082 8.84932 3.49614C8.84837 3.60151 8.89635 3.70168 8.97851 3.76708C9.03392 3.81087 14.562 8.23151 20.0915 14.8827Z" fill="#646D91"/>
</svg>
