<svg width="111" height="111" viewBox="0 0 111 111" fill="none" xmlns="http://www.w3.org/2000/svg">
<path d="M39.1244 20.7278C38.4494 19.2758 39.0763 17.5411 40.5721 16.9692C48.6248 13.8903 57.4641 13.3927 65.851 15.5877C75.1757 18.0281 83.3573 23.6441 88.9866 31.4682C94.6158 39.2923 97.3401 48.8347 96.6902 58.4515C96.0403 68.0683 92.0568 77.1574 85.4261 84.153C78.7953 91.1486 69.9325 95.6127 60.3642 96.7764C50.796 97.94 41.1215 95.7302 33.0073 90.5278C24.8931 85.3253 18.8473 77.4559 15.9114 68.2752C13.2708 60.0177 13.2947 51.1645 15.9382 42.9585C16.4292 41.4344 18.1279 40.7154 19.614 41.3118C21.1001 41.9082 21.8091 43.594 21.3355 45.1236C19.1843 52.0715 19.2053 59.5371 21.4348 66.5089C23.9596 74.4043 29.159 81.172 36.1372 85.6461C43.1154 90.1202 51.4355 92.0206 59.6642 91.0199C67.8928 90.0192 75.5149 86.18 81.2174 80.1638C86.9198 74.1476 90.3456 66.331 90.9045 58.0605C91.4634 49.7901 89.1205 41.5836 84.2794 34.8549C79.4382 28.1261 72.402 23.2963 64.3828 21.1976C57.3017 19.3444 49.8457 19.723 43.0229 22.2429C41.5208 22.7977 39.7995 22.1799 39.1244 20.7278Z" fill="#F8FAFC"/>
<path d="M18.0675 46.0233C16.5171 45.6227 15.5752 44.0368 16.0832 42.5182C18.5384 35.1785 23.0088 28.6533 29.0094 23.7043C35.7575 18.1387 44.0944 14.8523 52.8251 14.3161C61.5558 13.7799 70.2322 16.0215 77.6106 20.7195C84.9891 25.4175 90.6909 32.3307 93.8988 40.4685C97.1067 48.6062 97.656 57.5506 95.468 66.0197C93.28 74.4888 88.467 82.0478 81.7189 87.6134C74.9708 93.179 66.6339 96.4654 57.9032 97.0016C50.1397 97.4783 42.4192 95.7588 35.616 92.0687C34.2084 91.3053 33.8148 89.5032 34.6749 88.1525C35.5349 86.8017 37.3224 86.4154 38.7386 87.1628C44.5015 90.2041 51.0069 91.6153 57.5477 91.2136C65.0561 90.7524 72.2258 87.9262 78.0292 83.1398C83.8326 78.3534 87.9718 71.8526 89.8535 64.5691C91.7351 57.2857 91.2627 49.5935 88.5039 42.5951C85.7452 35.5967 80.8416 29.6513 74.4961 25.611C68.1506 21.5707 60.689 19.643 53.1806 20.1041C45.6721 20.5652 38.5024 23.3915 32.699 28.1779C27.6435 32.3475 23.8509 37.8181 21.7134 43.9738C21.1882 45.4865 19.6179 46.4238 18.0675 46.0233Z" fill="#F25D29"/>
<path d="M41.7046 71.5929C41.1651 71.5929 40.6797 71.5004 40.2481 71.3155C39.8166 71.1228 39.4775 70.8531 39.2309 70.5063C38.9843 70.1595 38.861 69.755 38.861 69.2926H40.2712C40.3021 69.6394 40.4369 69.9245 40.6758 70.148C40.9224 70.3715 41.2653 70.4832 41.7046 70.4832C42.1592 70.4832 42.5137 70.3753 42.768 70.1595C43.0223 69.9361 43.1495 69.6509 43.1495 69.3041C43.1495 69.0344 43.0686 68.8148 42.9067 68.6453C42.7526 68.4757 42.5561 68.3447 42.3172 68.2523C42.086 68.1598 41.7624 68.0596 41.3462 67.9517C40.8222 67.813 40.3945 67.6743 40.0632 67.5356C39.7395 67.3892 39.4621 67.1657 39.2309 66.8651C38.9997 66.5646 38.8841 66.1639 38.8841 65.663C38.8841 65.2006 38.9997 64.796 39.2309 64.4493C39.4621 64.1025 39.7857 63.8366 40.2019 63.6517C40.618 63.4667 41.0996 63.3743 41.6468 63.3743C42.4251 63.3743 43.0609 63.5708 43.5541 63.9638C44.055 64.3491 44.3324 64.8808 44.3863 65.559H42.9299C42.9067 65.2661 42.768 65.0157 42.5137 64.8076C42.2594 64.5995 41.9242 64.4955 41.5081 64.4955C41.1305 64.4955 40.8222 64.5918 40.5833 64.7845C40.3444 64.9771 40.225 65.2546 40.225 65.6167C40.225 65.8633 40.2982 66.0676 40.4446 66.2294C40.5987 66.3835 40.7914 66.5068 41.0226 66.5993C41.2538 66.6918 41.5697 66.7919 41.9704 66.8998C42.5022 67.0462 42.9337 67.1927 43.2651 67.3391C43.6041 67.4855 43.8893 67.7128 44.1205 68.0211C44.3594 68.3216 44.4788 68.7262 44.4788 69.2348C44.4788 69.6432 44.3671 70.0285 44.1436 70.3907C43.9278 70.7529 43.608 71.0457 43.1842 71.2692C42.768 71.485 42.2748 71.5929 41.7046 71.5929ZM47.5711 66.2178V69.7434C47.5711 69.9823 47.625 70.1557 47.7329 70.2636C47.8485 70.3637 48.0412 70.4138 48.3109 70.4138H49.12V71.512H48.0797C47.4863 71.512 47.0316 71.3733 46.7157 71.0958C46.3997 70.8184 46.2418 70.3676 46.2418 69.7434V66.2178H45.4904V65.1428H46.2418V63.5592H47.5711V65.1428H49.12V66.2178H47.5711ZM56.172 68.1713C56.172 68.4102 56.1566 68.626 56.1257 68.8187H51.2593C51.2978 69.3273 51.4866 69.7357 51.8257 70.0439C52.1648 70.3522 52.5809 70.5063 53.0741 70.5063C53.7831 70.5063 54.284 70.2096 54.5768 69.6162H55.9986C55.8059 70.2019 55.4553 70.6836 54.9467 71.0612C54.4458 71.431 53.8216 71.616 53.0741 71.616C52.4653 71.616 51.9182 71.4811 51.4327 71.2114C50.9549 70.934 50.5773 70.5487 50.2999 70.0555C50.0302 69.5546 49.8953 68.9766 49.8953 68.3216C49.8953 67.6666 50.0263 67.0925 50.2883 66.5993C50.558 66.0984 50.9318 65.7131 51.4096 65.4434C51.895 65.1736 52.4499 65.0388 53.0741 65.0388C53.6752 65.0388 54.2107 65.1698 54.6808 65.4318C55.1509 65.6938 55.5169 66.0637 55.7789 66.5415C56.041 67.0116 56.172 67.5548 56.172 68.1713ZM54.7964 67.7552C54.7887 67.2697 54.6153 66.8806 54.2762 66.5877C53.9372 66.2949 53.5172 66.1485 53.0163 66.1485C52.5616 66.1485 52.1725 66.2949 51.8488 66.5877C51.5251 66.8729 51.3325 67.262 51.2708 67.7552H54.7964ZM58.7865 66.0791C59.01 65.7863 59.3144 65.5397 59.6997 65.3393C60.085 65.139 60.5204 65.0388 61.0059 65.0388C61.5607 65.0388 62.0655 65.1775 62.5202 65.4549C62.9825 65.7246 63.3447 66.1061 63.6067 66.5993C63.8687 67.0925 63.9997 67.6589 63.9997 68.2985C63.9997 68.9381 63.8687 69.5122 63.6067 70.0208C63.3447 70.5217 62.9825 70.9147 62.5202 71.1999C62.0655 71.4773 61.5607 71.616 61.0059 71.616C60.5204 71.616 60.0889 71.5197 59.7113 71.327C59.3337 71.1267 59.0254 70.8801 58.7865 70.5872V74.5405H57.4688V65.1428H58.7865V66.0791ZM62.6589 68.2985C62.6589 67.8592 62.5664 67.4816 62.3814 67.1657C62.2042 66.842 61.9653 66.5993 61.6648 66.4375C61.3719 66.2679 61.056 66.1832 60.7169 66.1832C60.3855 66.1832 60.0696 66.2679 59.7691 66.4375C59.4762 66.607 59.2373 66.8536 59.0524 67.1772C58.8751 67.5009 58.7865 67.8824 58.7865 68.3216C58.7865 68.7609 58.8751 69.1462 59.0524 69.4775C59.2373 69.8012 59.4762 70.0478 59.7691 70.2173C60.0696 70.3869 60.3855 70.4716 60.7169 70.4716C61.056 70.4716 61.3719 70.3869 61.6648 70.2173C61.9653 70.0401 62.2042 69.7858 62.3814 69.4544C62.5664 69.1231 62.6589 68.7377 62.6589 68.2985ZM67.6147 71.616C67.1138 71.616 66.663 71.5274 66.2623 71.3501C65.8693 71.1652 65.5572 70.9186 65.326 70.6103C65.0948 70.2944 64.9715 69.9438 64.9561 69.5585H66.3201C66.3432 69.8282 66.4703 70.0555 66.7015 70.2404C66.9404 70.4177 67.2371 70.5063 67.5916 70.5063C67.9615 70.5063 68.2466 70.437 68.447 70.2982C68.655 70.1518 68.7591 69.9669 68.7591 69.7434C68.7591 69.5045 68.6435 69.3273 68.4123 69.2117C68.1888 69.0961 67.8305 68.9689 67.3373 68.8302C66.8595 68.6992 66.4703 68.5721 66.1698 68.4488C65.8693 68.3255 65.6073 68.1367 65.3838 67.8824C65.168 67.6281 65.0601 67.2928 65.0601 66.8767C65.0601 66.5376 65.1603 66.2294 65.3607 65.952C65.561 65.6668 65.8461 65.4434 66.216 65.2815C66.5936 65.1197 67.0252 65.0388 67.5107 65.0388C68.2351 65.0388 68.8169 65.2237 69.2561 65.5936C69.7031 65.9558 69.942 66.4529 69.9728 67.0848H68.655C68.6319 66.7996 68.5163 66.5723 68.3083 66.4028C68.1002 66.2332 67.8189 66.1485 67.4644 66.1485C67.1177 66.1485 66.8518 66.214 66.6669 66.345C66.4819 66.476 66.3894 66.6494 66.3894 66.8651C66.3894 67.0347 66.4511 67.1772 66.5744 67.2928C66.6977 67.4084 66.8479 67.5009 67.0252 67.5703C67.2024 67.6319 67.4644 67.7128 67.8112 67.813C68.2736 67.9363 68.6512 68.0635 68.944 68.1945C69.2446 68.3178 69.5027 68.5027 69.7185 68.7493C69.9343 68.9959 70.046 69.3234 70.0537 69.7318C70.0537 70.094 69.9535 70.4177 69.7532 70.7028C69.5528 70.9879 69.2677 71.2114 68.8978 71.3733C68.5356 71.5351 68.1079 71.616 67.6147 71.616Z" fill="#9299A3"/>
<path d="M35.3474 42.3524V40.3488H39.3546V54.3933H37.139V42.3524H35.3474ZM43.5854 51.4072C44.8184 50.3412 45.7881 49.4678 46.4945 48.7871C47.2137 48.0935 47.811 47.3743 48.2862 46.6294C48.7614 45.8844 48.999 45.1395 48.999 44.3946C48.999 43.6239 48.8128 43.0203 48.4403 42.5836C48.0807 42.1469 47.5092 41.9286 46.7257 41.9286C45.9679 41.9286 45.3771 42.1726 44.9533 42.6607C44.5423 43.1359 44.3239 43.7781 44.2983 44.5872H42.1791C42.2176 43.1231 42.6543 42.0057 43.4891 41.235C44.3368 40.4516 45.4092 40.0599 46.7064 40.0599C48.1064 40.0599 49.1981 40.4452 49.9815 41.2158C50.7778 41.9864 51.176 43.0139 51.176 44.2982C51.176 45.223 50.9384 46.1156 50.4632 46.9761C50.0008 47.8238 49.4421 48.588 48.7871 49.2687C48.1449 49.9366 47.3229 50.7136 46.3211 51.5998L45.4542 52.3704H51.5613V54.2007H42.1983V52.6016L43.5854 51.4072ZM53.4522 43.8166C53.5292 42.6221 53.9852 41.691 54.82 41.0231C55.6677 40.3553 56.7466 40.0213 58.0566 40.0213C58.9557 40.0213 59.7327 40.1819 60.3877 40.503C61.0427 40.824 61.5372 41.2607 61.8712 41.813C62.2051 42.3653 62.3721 42.9882 62.3721 43.6817C62.3721 44.478 62.1601 45.1588 61.7363 45.7239C61.3125 46.289 60.8051 46.6679 60.2143 46.8605V46.9376C60.9721 47.1688 61.5629 47.5926 61.9868 48.2091C62.4106 48.8128 62.6225 49.5898 62.6225 50.5402C62.6225 51.298 62.4491 51.9723 62.1023 52.5631C61.7556 53.1539 61.2418 53.6227 60.5611 53.9695C59.8804 54.3034 59.0648 54.4704 58.1144 54.4704C56.7273 54.4704 55.5842 54.1172 54.6852 53.4108C53.799 52.6915 53.3237 51.664 53.2595 50.3283H55.3787C55.4301 51.009 55.6934 51.5677 56.1686 52.0044C56.6438 52.4282 57.286 52.6402 58.0951 52.6402C58.8786 52.6402 59.4822 52.4282 59.9061 52.0044C60.3299 51.5677 60.5418 51.009 60.5418 50.3283C60.5418 49.4293 60.2529 48.7935 59.6749 48.421C59.1098 48.0357 58.2364 47.8431 57.0548 47.8431H56.5539V46.0321H57.0741C58.1144 46.0193 58.9043 45.8459 59.4437 45.512C59.996 45.178 60.2721 44.6514 60.2721 43.9322C60.2721 43.3157 60.0731 42.8276 59.6749 42.468C59.2768 42.0956 58.7116 41.9093 57.9795 41.9093C57.2603 41.9093 56.7016 42.0956 56.3035 42.468C55.9053 42.8276 55.6677 43.2772 55.5906 43.8166H53.4522ZM64.6598 51.465V49.8081L71.133 40.5222H73.7916V49.5577H75.5833V51.465H73.7916V54.3933H71.6339V51.465H64.6598ZM71.7302 42.757L67.1836 49.5577H71.7302V42.757Z" fill="#0A0615"/>
</svg>
