<svg width="85" height="84" viewBox="0 0 85 84" fill="none" xmlns="http://www.w3.org/2000/svg">
<g clip-path="url(#clip0_2_3022)">
<path d="M46.2338 3.66537C46.3845 2.07116 47.8017 0.890561 49.3815 1.15232C57.8868 2.56161 65.7673 6.59605 71.8977 12.7261C78.7135 19.5415 82.9391 28.5206 83.8464 38.1165C84.7538 47.7124 82.2861 57.3244 76.8686 65.2966C71.451 73.2687 63.4228 79.1019 54.1668 81.7913C44.9109 84.4807 35.0068 83.8579 26.1607 80.0301C17.3146 76.2024 10.0803 69.4093 5.70421 60.8213C1.32808 52.2332 0.0840359 42.3879 2.1864 32.9812C4.07733 24.5205 8.56894 16.8913 14.9947 11.1436C16.1883 10.0761 18.0175 10.3134 18.999 11.5786C19.9805 12.8439 19.7411 14.657 18.5598 15.7381C13.1943 20.6485 9.44217 27.1027 7.84566 34.246C6.03763 42.3358 7.10751 50.8028 10.871 58.1885C14.6345 65.5742 20.8559 71.4162 28.4635 74.7081C36.0712 78 44.5887 78.5356 52.5488 76.2227C60.5089 73.9099 67.4132 68.8933 72.0723 62.0372C76.7314 55.1812 78.8536 46.9149 78.0733 38.6624C77.2929 30.4099 73.659 22.6879 67.7974 16.8266C62.6215 11.6511 55.995 8.21248 48.8335 6.94183C47.2568 6.66208 46.0832 5.25959 46.2338 3.66537Z" fill="#F8FAFC"/>
<path d="M75.1099 62.6951C76.4609 63.5548 76.8673 65.3539 75.9153 66.6415C71.9665 71.9821 66.7817 76.3069 60.7882 79.2342C53.9242 82.5866 46.2669 83.9757 38.6628 83.2477C31.0587 82.5197 23.804 79.7031 17.7007 75.1093C11.5975 70.5154 6.88356 64.3233 4.07999 57.2175C1.27642 50.1117 0.49247 42.369 1.81481 34.8454C3.13715 27.3218 6.51427 20.3105 11.5728 14.5865C16.6313 8.86255 23.1742 4.64894 30.4781 2.41152C36.8558 0.457832 43.5968 0.077384 50.1284 1.28299C51.7031 1.57366 52.6346 3.16558 52.2345 4.71611C51.8344 6.26664 50.2541 7.18684 48.6762 6.91414C43.1841 5.965 37.5314 6.31573 32.1766 7.95609C25.8953 9.88027 20.2684 13.504 15.918 18.4266C11.5677 23.3492 8.66336 29.379 7.52615 35.8492C6.38894 42.3195 7.06313 48.9782 9.4742 55.0892C11.8853 61.2002 15.9393 66.5255 21.1881 70.4762C26.4368 74.4269 32.6759 76.8491 39.2154 77.4752C45.755 78.1013 52.3403 76.9067 58.2432 74.0236C63.2755 71.5658 67.6449 67.9624 71.0093 63.5189C71.976 62.2423 73.7589 61.8355 75.1099 62.6951Z" fill="#F25D29"/>
<path d="M33.2574 57.7537L30.148 54.1587V57.7537H28.8302V49.72H30.148V53.3843L33.269 49.72H34.9219L31.431 53.7426L34.9797 57.7537H33.2574ZM35.7058 53.7195C35.7058 52.9335 35.8869 52.2283 36.2491 51.6041C36.619 50.9799 37.116 50.4945 37.7402 50.1477C38.3721 49.7932 39.0618 49.616 39.8093 49.616C40.6647 49.616 41.4238 49.8279 42.0865 50.2517C42.7569 50.6678 43.2424 51.2612 43.543 52.0318H41.9593C41.7513 51.608 41.4623 51.292 41.0924 51.084C40.7225 50.8759 40.2948 50.7719 39.8093 50.7719C39.2776 50.7719 38.8037 50.8913 38.3875 51.1302C37.9714 51.3691 37.6439 51.712 37.405 52.159C37.1738 52.6059 37.0582 53.1261 37.0582 53.7195C37.0582 54.3129 37.1738 54.833 37.405 55.28C37.6439 55.7269 37.9714 56.0737 38.3875 56.3203C38.8037 56.5592 39.2776 56.6787 39.8093 56.6787C40.2948 56.6787 40.7225 56.5746 41.0924 56.3666C41.4623 56.1585 41.7513 55.8425 41.9593 55.4187H43.543C43.2424 56.1893 42.7569 56.7827 42.0865 57.1988C41.4238 57.615 40.6647 57.823 39.8093 57.823C39.0541 57.823 38.3644 57.6496 37.7402 57.3029C37.116 56.9484 36.619 56.459 36.2491 55.8348C35.8869 55.2106 35.7058 54.5055 35.7058 53.7195ZM44.6461 54.5402C44.6461 53.9006 44.7771 53.3342 45.0392 52.841C45.3089 52.3478 45.6711 51.9663 46.1257 51.6966C46.5881 51.4192 47.0967 51.2805 47.6515 51.2805C48.1524 51.2805 48.5878 51.3807 48.9577 51.581C49.3353 51.7737 49.6359 52.0164 49.8594 52.3093V51.3845H51.1887V57.7537H49.8594V56.8058C49.6359 57.1063 49.3315 57.3568 48.9462 57.5572C48.5609 57.7575 48.1216 57.8577 47.6284 57.8577C47.0813 57.8577 46.5804 57.719 46.1257 57.4416C45.6711 57.1564 45.3089 56.7634 45.0392 56.2625C44.7771 55.7539 44.6461 55.1798 44.6461 54.5402ZM49.8594 54.5633C49.8594 54.1241 49.7669 53.7426 49.5819 53.4189C49.4047 53.0953 49.1697 52.8487 48.8768 52.6792C48.584 52.5096 48.268 52.4249 47.929 52.4249C47.5899 52.4249 47.2739 52.5096 46.9811 52.6792C46.6883 52.841 46.4494 53.0837 46.2644 53.4074C46.0872 53.7233 45.9986 54.1009 45.9986 54.5402C45.9986 54.9794 46.0872 55.3648 46.2644 55.6961C46.4494 56.0275 46.6883 56.2818 46.9811 56.459C47.2816 56.6286 47.5976 56.7133 47.929 56.7133C48.268 56.7133 48.584 56.6286 48.8768 56.459C49.1697 56.2895 49.4047 56.0429 49.5819 55.7192C49.7669 55.3879 49.8594 55.0026 49.8594 54.5633ZM54.2372 49.1998V57.7537H52.9195V49.1998H54.2372Z" fill="#9299A3"/>
<path d="M27.9868 36.8205C28.1152 37.4626 28.3914 37.9507 28.8152 38.2846C29.2391 38.6186 29.8106 38.7855 30.5298 38.7855C31.4417 38.7855 32.1096 38.4259 32.5334 37.7067C32.9573 36.9874 33.1692 35.7609 33.1692 34.027C32.861 34.4637 32.4243 34.804 31.8592 35.048C31.3069 35.2792 30.7032 35.3948 30.0482 35.3948C29.2134 35.3948 28.4556 35.2279 27.7749 34.8939C27.0942 34.5471 26.5547 34.0398 26.1566 33.372C25.7713 32.6912 25.5786 31.8693 25.5786 30.906C25.5786 29.4932 25.9896 28.3694 26.8116 27.5345C27.6465 26.6869 28.7895 26.263 30.2409 26.263C31.9876 26.263 33.227 26.8474 33.9591 28.0162C34.704 29.1721 35.0765 30.9509 35.0765 33.3527C35.0765 35.0095 34.9352 36.3645 34.6526 37.4177C34.3829 38.4709 33.9077 39.2672 33.227 39.8066C32.5463 40.346 31.6023 40.6157 30.395 40.6157C29.0207 40.6157 27.9611 40.2561 27.2162 39.5369C26.4713 38.8176 26.0538 37.9122 25.9639 36.8205H27.9868ZM30.4335 33.5453C31.2041 33.5453 31.8078 33.3077 32.2445 32.8325C32.694 32.3445 32.9188 31.7023 32.9188 30.906C32.9188 30.0198 32.6811 29.3326 32.2059 28.8446C31.7436 28.3437 31.1078 28.0932 30.2987 28.0932C29.4895 28.0932 28.8473 28.3501 28.3721 28.8638C27.9097 29.3647 27.6786 30.0262 27.6786 30.8482C27.6786 31.6316 27.9033 32.2802 28.3529 32.794C28.8152 33.2949 29.5088 33.5453 30.4335 33.5453ZM40.2158 36.8205C40.3443 37.4626 40.6204 37.9507 41.0442 38.2846C41.4681 38.6186 42.0396 38.7855 42.7589 38.7855C43.6708 38.7855 44.3386 38.4259 44.7625 37.7067C45.1863 36.9874 45.3982 35.7609 45.3982 34.027C45.09 34.4637 44.6533 34.804 44.0882 35.048C43.5359 35.2792 42.9322 35.3948 42.2772 35.3948C41.4424 35.3948 40.6846 35.2279 40.0039 34.8939C39.3232 34.5471 38.7838 34.0398 38.3856 33.372C38.0003 32.6912 37.8077 31.8693 37.8077 30.906C37.8077 29.4932 38.2186 28.3694 39.0406 27.5345C39.8755 26.6869 41.0186 26.263 42.4699 26.263C44.2166 26.263 45.456 26.8474 46.1881 28.0162C46.933 29.1721 47.3055 30.9509 47.3055 33.3527C47.3055 35.0095 47.1642 36.3645 46.8817 37.4177C46.6119 38.4709 46.1367 39.2672 45.456 39.8066C44.7753 40.346 43.8313 40.6157 42.624 40.6157C41.2497 40.6157 40.1901 40.2561 39.4452 39.5369C38.7003 38.8176 38.2829 37.9122 38.193 36.8205H40.2158ZM42.6625 33.5453C43.4331 33.5453 44.0368 33.3077 44.4735 32.8325C44.923 32.3445 45.1478 31.7023 45.1478 30.906C45.1478 30.0198 44.9102 29.3326 44.4349 28.8446C43.9726 28.3437 43.3368 28.0932 42.5277 28.0932C41.7185 28.0932 41.0763 28.3501 40.6011 28.8638C40.1388 29.3647 39.9076 30.0262 39.9076 30.8482C39.9076 31.6316 40.1323 32.2802 40.5819 32.794C41.0442 33.2949 41.7378 33.5453 42.6625 33.5453ZM49.7092 33.4297C49.7092 31.2078 50.0816 29.4739 50.8265 28.2281C51.5843 26.9694 52.8815 26.3401 54.7182 26.3401C56.5548 26.3401 57.8456 26.9694 58.5905 28.2281C59.3483 29.4739 59.7272 31.2078 59.7272 33.4297C59.7272 35.6774 59.3483 37.437 58.5905 38.7085C57.8456 39.9671 56.5548 40.5965 54.7182 40.5965C52.8815 40.5965 51.5843 39.9671 50.8265 38.7085C50.0816 37.437 49.7092 35.6774 49.7092 33.4297ZM57.5694 33.4297C57.5694 32.3894 57.4988 31.5096 57.3575 30.7904C57.2291 30.0711 56.9594 29.4868 56.5484 29.0372C56.1374 28.5749 55.5273 28.3437 54.7182 28.3437C53.909 28.3437 53.2989 28.5749 52.8879 29.0372C52.477 29.4868 52.2008 30.0711 52.0595 30.7904C51.9311 31.5096 51.8669 32.3894 51.8669 33.4297C51.8669 34.5086 51.9311 35.4141 52.0595 36.1462C52.188 36.8783 52.4577 37.4691 52.8687 37.9186C53.2925 38.3681 53.909 38.5929 54.7182 38.5929C55.5273 38.5929 56.1374 38.3681 56.5484 37.9186C56.9722 37.4691 57.2483 36.8783 57.3768 36.1462C57.5052 35.4141 57.5694 34.5086 57.5694 33.4297Z" fill="#0A0615"/>
</g>
<defs>
<clipPath id="clip0_2_3022">
<rect width="83.4847" height="83.4847" fill="white" transform="translate(0.752808 0.158203)"/>
</clipPath>
</defs>
</svg>
